<svg width="220" height="235" viewBox="0 0 220 235" fill="none" xmlns="http://www.w3.org/2000/svg">
<ellipse cx="109.603" cy="117.553" rx="109.504" ry="116.667" fill="url(#paint0_linear)"/>
<mask id="mask0" mask-type="alpha" maskUnits="userSpaceOnUse" x="0" y="0" width="220" height="235">
<ellipse cx="109.603" cy="117.553" rx="109.504" ry="116.667" fill="white"/>
</mask>
<g mask="url(#mask0)">
<g clip-path="url(#clip0)">
<path d="M92.4891 42.9121H127.657C130.585 42.9121 133.394 44.1409 135.464 46.3281C137.535 48.5153 138.698 51.4818 138.698 54.5749V79.7817H81.4484V54.5749C81.4484 51.4818 82.6116 48.5153 84.6821 46.3281C86.7527 44.1409 89.5609 42.9121 92.4891 42.9121Z" fill="#343C4A"/>
<path d="M122.362 79.7816H138.698V54.575C138.7 52.6863 138.266 50.8257 137.433 49.1545C136.315 52.5236 134.69 55.6801 132.62 58.5021C131.129 60.5313 129.419 62.3698 127.525 63.9804L122.362 79.7816Z" fill="#243047"/>
<path d="M178.297 230.457V172.264C178.297 167.732 177.006 163.306 174.592 159.56C172.177 155.814 168.752 152.922 164.76 151.262L130.207 136.884C128.876 136.33 127.734 135.366 126.93 134.118C126.125 132.869 125.694 131.394 125.694 129.883V122.77H94.4519V129.883C94.4519 131.394 94.0215 132.869 93.2167 134.118C92.4118 135.366 91.2699 136.33 89.9394 136.884L55.3861 151.262C51.3946 152.922 47.9688 155.814 45.5544 159.56C43.14 163.306 41.8488 167.732 41.8488 172.264V230.457C41.8488 231.455 42.224 232.412 42.8919 233.118C43.5598 233.823 44.4657 234.219 45.4103 234.219H174.736C175.68 234.219 176.586 233.823 177.254 233.118C177.922 232.412 178.297 231.455 178.297 230.457Z" fill="#89C060"/>
<path d="M88.0911 137.653C89.9758 142.151 93.0564 145.973 96.9587 148.656C100.861 151.34 105.417 152.768 110.073 152.768C114.729 152.768 119.285 151.34 123.188 148.656C127.09 145.973 130.17 142.151 132.055 137.653H132.055L130.207 136.884C128.876 136.33 127.734 135.366 126.93 134.118C126.125 132.869 125.694 131.394 125.694 129.883V122.77H94.4519V129.883C94.4519 131.394 94.0215 132.869 93.2167 134.118C92.4119 135.366 91.27 136.33 89.9395 136.884L88.0911 137.653H88.0911Z" fill="#CC938B"/>
<path d="M126.828 133.947C126.089 132.735 125.695 131.324 125.694 129.883V122.77H94.4519V125.682C96.8346 128.79 99.6676 131.481 102.846 133.655C106.41 136.09 110.553 137.41 114.797 137.461C119.041 137.513 123.212 136.295 126.828 133.947Z" fill="#A56362"/>
<path d="M135.564 109.391C132.728 116.086 128.116 121.77 122.287 125.754L122.286 125.754C118.648 128.241 114.407 129.564 110.073 129.564C105.739 129.564 101.498 128.241 97.8597 125.754C92.0301 121.77 87.4182 116.087 84.5821 109.392L84.5821 109.391C82.5162 104.515 81.4483 99.2321 81.4483 93.8893V79.7816C90.9987 79.9256 100.488 78.151 109.411 74.5522C115.882 71.9299 121.978 68.3721 127.525 63.9804C128.311 67.2613 129.703 70.346 131.62 73.0575C133.538 75.769 135.943 78.054 138.698 79.7816V93.8893C138.698 99.2321 137.63 104.515 135.564 109.391ZM67.0214 234.22H45.4103C44.4657 234.22 43.5598 233.823 42.8919 233.118C42.224 232.412 41.8488 231.455 41.8488 230.457V212.393H67.0214V234.22Z" fill="#CC938B"/>
<path d="M110.074 118.601C108.138 118.598 106.226 118.143 104.475 117.27C104.177 117.12 103.947 116.852 103.836 116.523C103.725 116.194 103.742 115.832 103.884 115.517C104.025 115.202 104.279 114.959 104.59 114.841C104.901 114.723 105.244 114.741 105.543 114.89C106.959 115.597 108.507 115.965 110.074 115.967H110.105C111.661 115.96 113.197 115.592 114.604 114.89C114.752 114.816 114.912 114.774 115.076 114.765C115.239 114.756 115.403 114.782 115.557 114.84C115.711 114.898 115.853 114.988 115.974 115.104C116.096 115.22 116.194 115.36 116.264 115.516C116.334 115.673 116.375 115.842 116.383 116.015C116.391 116.187 116.367 116.36 116.312 116.523C116.257 116.686 116.172 116.836 116.062 116.964C115.952 117.092 115.819 117.196 115.671 117.27C113.933 118.137 112.036 118.591 110.113 118.601H110.074ZM114.598 101.598V103.912C114.598 105.179 114.121 106.394 113.273 107.291C112.425 108.187 111.274 108.69 110.074 108.69H110.072C108.872 108.69 107.722 108.187 106.873 107.291C106.025 106.394 105.549 105.179 105.549 103.912V101.598C105.549 101.298 105.661 101.011 105.861 100.8C106.062 100.588 106.334 100.469 106.617 100.469H113.53C113.813 100.469 114.085 100.588 114.285 100.8C114.485 101.011 114.598 101.298 114.598 101.598Z" fill="#A56362"/>
<path d="M81.4486 93.6942H81.4486C80.3546 93.6942 79.2714 93.4665 78.2607 93.0243C77.25 92.5821 76.3317 91.9339 75.5581 91.1168C74.7846 90.2997 74.171 89.3296 73.7523 88.2619C73.3337 87.1943 73.1182 86.05 73.1182 84.8944V84.8944C73.1182 83.1323 73.7809 81.4424 74.9604 80.1965C76.1399 78.9505 77.7397 78.2505 79.4078 78.2505H81.4486V93.6942Z" fill="#A56362"/>
<path d="M138.698 79.7816C138.367 79.5737 137.997 79.3286 137.599 79.0472L126.74 89.014C126.616 89.1276 126.515 89.2657 126.442 89.4206C126.369 89.5755 126.326 89.744 126.314 89.9167C126.303 90.0893 126.324 90.2625 126.376 90.4266C126.428 90.5906 126.51 90.7422 126.618 90.8726C126.726 91.0031 126.857 91.1098 127.003 91.1868C127.15 91.2638 127.31 91.3095 127.473 91.3212C127.636 91.333 127.8 91.3107 127.956 91.2555C128.111 91.2002 128.254 91.1132 128.378 90.9995L138.698 81.5282V79.7816ZM81.4484 79.7816V81.425L91.1388 89.0691C91.4037 89.2777 91.7362 89.3666 92.0631 89.3164C92.39 89.2662 92.6847 89.0809 92.8824 88.8013C93.0801 88.5216 93.1646 88.1705 93.1174 87.8251C93.0702 87.4797 92.8951 87.1683 92.6305 86.9592L83.5302 79.7805C82.8018 79.7912 82.1059 79.791 81.4484 79.7816ZM117.51 92.3177H102.636C102.305 92.3177 101.988 92.179 101.754 91.932C101.521 91.6851 101.389 91.3502 101.389 91.0009C101.389 90.6517 101.521 90.3168 101.754 90.0699C101.988 89.8229 102.305 89.6842 102.636 89.6842H117.51C117.841 89.6842 118.158 89.8229 118.392 90.0699C118.626 90.3168 118.757 90.6517 118.757 91.0009C118.757 91.3502 118.626 91.6851 118.392 91.932C118.158 92.179 117.841 92.3177 117.51 92.3177Z" fill="#596381"/>
<path d="M67.0216 234.219C66.691 234.219 66.3739 234.081 66.1401 233.834C65.9064 233.587 65.775 233.252 65.775 232.903V199.711C65.775 199.362 65.9064 199.027 66.1401 198.78C66.3739 198.533 66.691 198.395 67.0216 198.395C67.3522 198.395 67.6692 198.533 67.903 198.78C68.1368 199.027 68.2681 199.362 68.2681 199.711V232.903C68.2681 233.252 68.1367 233.587 67.903 233.834C67.6692 234.081 67.3522 234.219 67.0216 234.219Z" fill="#709653"/>
<path d="M138.698 93.6941V78.2504H140.739C142.407 78.2504 144.007 78.9504 145.186 80.1964C146.366 81.4424 147.028 83.1323 147.028 84.8944C147.028 86.05 146.813 87.1942 146.394 88.2619C145.976 89.3295 145.362 90.2996 144.588 91.1167C143.815 91.9338 142.897 92.582 141.886 93.0243C140.875 93.4665 139.792 93.6941 138.698 93.6941Z" fill="#A56362"/>
<path d="M194.659 162.241H137.204C134.254 162.241 131.862 164.767 131.862 167.884V228.576C131.862 231.693 134.254 234.219 137.204 234.219H194.659C197.61 234.219 200.002 231.693 200.002 228.576V167.884C200.002 164.767 197.61 162.241 194.659 162.241Z" fill="#F2F2F2"/>
<path d="M137.204 162.24H194.659C196.076 162.24 197.435 162.835 198.437 163.893C199.439 164.952 200.001 166.387 200.001 167.884V175.408H131.862V167.884C131.862 166.387 132.425 164.952 133.426 163.893C134.428 162.835 135.787 162.24 137.204 162.24Z" fill="#343C4A"/>
<path d="M139.106 170.283C139.794 170.283 140.352 169.693 140.352 168.966C140.352 168.239 139.794 167.649 139.106 167.649C138.417 167.649 137.859 168.239 137.859 168.966C137.859 169.693 138.417 170.283 139.106 170.283Z" fill="#F96263"/>
<path d="M144.092 170.283C144.78 170.283 145.338 169.693 145.338 168.966C145.338 168.239 144.78 167.649 144.092 167.649C143.403 167.649 142.845 168.239 142.845 168.966C142.845 169.693 143.403 170.283 144.092 170.283Z" fill="#FFBC5B"/>
<path d="M149.078 170.283C149.766 170.283 150.324 169.693 150.324 168.966C150.324 168.239 149.766 167.649 149.078 167.649C148.389 167.649 147.831 168.239 147.831 168.966C147.831 169.693 148.389 170.283 149.078 170.283Z" fill="#8FD17A"/>
<path d="M153.768 214.67C153.494 214.67 153.229 214.575 153.012 214.4L143.916 207.056C143.589 206.792 143.325 206.453 143.143 206.064C142.961 205.675 142.867 205.247 142.867 204.814C142.867 204.38 142.961 203.952 143.143 203.563C143.325 203.175 143.59 202.835 143.916 202.572L153.012 195.228C153.274 195.016 153.606 194.923 153.934 194.969C154.096 194.992 154.253 195.048 154.394 195.135C154.536 195.222 154.66 195.337 154.759 195.475C154.859 195.612 154.931 195.769 154.974 195.936C155.016 196.103 155.026 196.277 155.004 196.449C154.983 196.62 154.929 196.785 154.847 196.935C154.765 197.085 154.656 197.216 154.526 197.321L145.43 204.665C145.408 204.682 145.39 204.705 145.378 204.731C145.366 204.756 145.36 204.785 145.36 204.814C145.36 204.843 145.366 204.871 145.378 204.897C145.39 204.923 145.408 204.945 145.429 204.963L154.526 212.307C154.733 212.474 154.885 212.706 154.961 212.969C155.037 213.233 155.033 213.515 154.949 213.776C154.866 214.037 154.707 214.263 154.495 214.424C154.283 214.584 154.029 214.67 153.768 214.67H153.768ZM178.095 214.67C177.835 214.67 177.58 214.584 177.368 214.424C177.157 214.263 176.998 214.037 176.914 213.776C176.83 213.515 176.826 213.233 176.902 212.969C176.978 212.706 177.13 212.474 177.338 212.307L186.434 204.963C186.455 204.945 186.473 204.923 186.485 204.897C186.497 204.871 186.504 204.843 186.504 204.814C186.504 204.785 186.497 204.757 186.485 204.731C186.473 204.705 186.456 204.682 186.434 204.665L177.338 197.321C177.075 197.109 176.903 196.795 176.859 196.449C176.815 196.103 176.903 195.752 177.104 195.475C177.305 195.197 177.602 195.015 177.929 194.969C178.257 194.923 178.589 195.016 178.852 195.228L187.948 202.572C188.274 202.835 188.538 203.175 188.72 203.563C188.902 203.952 188.997 204.38 188.997 204.814C188.997 205.248 188.902 205.675 188.72 206.064C188.538 206.453 188.274 206.792 187.947 207.056L178.852 214.4C178.634 214.575 178.369 214.67 178.095 214.67ZM160.808 216.63C160.594 216.629 160.384 216.571 160.198 216.46C160.012 216.35 159.856 216.19 159.744 215.998C159.633 215.805 159.571 215.585 159.563 215.359C159.556 215.134 159.603 214.91 159.701 214.709L169.946 193.712C170.021 193.558 170.124 193.421 170.249 193.309C170.374 193.196 170.519 193.112 170.675 193.059C170.831 193.006 170.995 192.986 171.158 193C171.322 193.014 171.481 193.063 171.627 193.142C171.772 193.221 171.902 193.33 172.008 193.462C172.113 193.595 172.193 193.748 172.243 193.913C172.293 194.078 172.311 194.251 172.298 194.424C172.284 194.597 172.238 194.764 172.162 194.918L161.917 215.916C161.812 216.131 161.653 216.312 161.457 216.437C161.262 216.563 161.037 216.63 160.808 216.63Z" fill="#343C4A"/>
<path d="M103.84 85.9222H93.8682C92.4913 85.9222 91.3751 87.1013 91.3751 88.5558V93.4466C91.3751 94.9011 92.4913 96.0802 93.8682 96.0802H103.84C105.217 96.0802 106.334 94.9011 106.334 93.4466V88.5558C106.334 87.1013 105.217 85.9222 103.84 85.9222Z" fill="#CCE3FD"/>
<path d="M126.278 85.9222H116.306C114.929 85.9222 113.813 87.1013 113.813 88.5558V93.4466C113.813 94.9011 114.929 96.0802 116.306 96.0802H126.278C127.655 96.0802 128.771 94.9011 128.771 93.4466V88.5558C128.771 87.1013 127.655 85.9222 126.278 85.9222Z" fill="#CCE3FD"/>
</g>
</g>
<defs>
<linearGradient id="paint0_linear" x1="109.603" y1="0.886536" x2="109.603" y2="234.22" gradientUnits="userSpaceOnUse">
<stop stop-color="#7700BB"/>
<stop offset="0.984375" stop-color="#2D0A31"/>
</linearGradient>
<clipPath id="clip0">
<rect width="182.35" height="192.624" fill="white" transform="translate(18.8982 41.5958)"/>
</clipPath>
</defs>
</svg>
