<svg width="434" height="322" viewBox="0 0 434 322" fill="none" xmlns="http://www.w3.org/2000/svg">
<g opacity="0.8" clip-path="url(#clip0)">
<path opacity="0.25" d="M433.626 185.048C431.557 206.348 435.439 256.404 398.119 289.734C373.254 311.938 330.103 326.712 254.732 320.62C66.22 305.386 49.2288 347.356 24.6358 253.422C24.6358 253.422 23.6738 212.858 13.1267 202.787C2.5795 192.716 0.042737 159.488 0.042737 159.488C0.042737 159.488 -3.26868 111.929 47.1176 86.1126C97.504 60.2967 123.382 99.4977 147.354 91.8892C171.326 84.2808 158.242 47.8148 203.614 30.5445C248.986 13.2743 271.605 19.9881 293.371 30.5445C315.138 41.1009 351.547 48.3601 372.65 37.531C393.752 26.702 427.13 41.9444 421.018 79.2795C414.906 116.615 437.082 149.553 433.626 185.048Z" fill="#68E1FD"/>
<path opacity="0.25" d="M433.626 185.048C431.557 206.348 435.439 256.404 398.119 289.734C379.485 306.383 350.559 318.848 305.493 321.489C288.574 322.377 271.613 322.093 254.732 320.637C78.3335 306.383 52.1316 342.21 29.3262 269.917C27.7769 264.975 26.2191 259.463 24.6358 253.422C24.6358 253.422 23.6738 212.858 13.1267 202.787C2.5795 192.716 0.042737 159.488 0.042737 159.488C0.042737 159.488 -3.26868 111.929 47.1176 86.1126C97.504 60.2967 123.382 99.4977 147.354 91.8892C171.326 84.2808 158.242 47.8148 203.614 30.5445C248.986 13.2743 271.605 19.9881 293.371 30.5445C315.138 41.1009 351.547 48.3601 372.65 37.531C393.752 26.702 427.13 41.9444 421.018 79.2795C414.906 116.615 437.082 149.553 433.626 185.048Z" fill="#68E1FD"/>
<path opacity="0.42" d="M314.772 275.199C314.372 292.478 310.201 308.581 305.493 321.455C288.574 322.343 271.613 322.058 254.732 320.603C78.3334 306.349 52.1315 342.176 29.3262 269.883L64.228 226.277C64.228 226.277 189.432 132.556 336.003 145.847C482.573 159.138 315.725 233.97 314.772 275.199Z" fill="#68E1FD"/>
<path opacity="0.25" d="M399.294 287.127L398.119 289.726C373.254 311.929 330.103 326.703 254.732 320.611C66.22 305.386 49.2288 347.356 24.6357 253.422C24.6357 253.422 39.6435 194.446 38.9114 138.281L90.6172 167.445C90.6172 167.445 90.3618 280.814 99.862 290.501C109.362 300.189 126.515 311.256 126.932 284.128C127.349 257 217.651 146.324 255.328 188.098C293.005 229.872 283.769 252.715 285.369 266.372C286.97 280.03 282.135 304.713 302.165 305.318C322.195 305.923 349.776 302.864 349.776 302.864L399.294 287.127Z" fill="#68E1FD"/>
<path d="M90.6169 122.229V288.371C90.6169 295.234 87.8931 301.815 83.0448 306.668C78.1964 311.521 71.6206 314.247 64.764 314.247C57.9074 314.247 51.3316 311.521 46.4833 306.668C41.6349 301.815 38.9111 295.234 38.9111 288.371V122.229H90.6169Z" fill="#68E1FD"/>
<path d="M90.6169 122.229V288.371C90.6169 295.234 87.8931 301.815 83.0448 306.668C78.1964 311.521 71.6206 314.247 64.764 314.247C57.9074 314.247 51.3316 311.521 46.4833 306.668C41.6349 301.815 38.9111 295.234 38.9111 288.371V122.229H90.6169Z" fill="url(#paint0_linear)"/>
<path d="M83.9004 167.445V286.412C83.9004 296.542 75.9666 305.105 65.8536 305.386C63.3717 305.455 60.9011 305.026 58.5878 304.123C56.2746 303.221 54.1655 301.863 52.3855 300.131C50.6054 298.398 49.1904 296.326 48.2241 294.037C47.2579 291.748 46.7599 289.288 46.7598 286.803V167.445L52.4632 171.007C57.1791 173.955 62.7312 175.272 68.2673 174.756C73.8033 174.241 79.0173 171.921 83.1087 168.153L83.9004 167.445Z" fill="#68E1FD"/>
<path d="M83.9004 167.445V286.412C83.9004 296.542 75.9666 305.105 65.8536 305.386C63.3717 305.455 60.9011 305.026 58.5878 304.123C56.2746 303.221 54.1655 301.863 52.3855 300.131C50.6054 298.398 49.1904 296.326 48.2241 294.037C47.2579 291.748 46.7599 289.288 46.7598 286.803V167.445L52.4632 171.007C57.1791 173.955 62.7312 175.272 68.2673 174.756C73.8033 174.241 79.0173 171.921 83.1087 168.153L83.9004 167.445Z" fill="url(#paint1_linear)"/>
<path d="M230.693 37.5395H173.99C169.952 37.5395 166.678 40.8144 166.678 44.854C166.678 48.8937 169.952 52.1685 173.99 52.1685H230.693C234.731 52.1685 238.005 48.8937 238.005 44.854C238.005 40.8144 234.731 37.5395 230.693 37.5395Z" fill="#68E1FD"/>
<path d="M230.693 37.5395H173.99C169.952 37.5395 166.678 40.8144 166.678 44.854C166.678 48.8937 169.952 52.1685 173.99 52.1685H230.693C234.731 52.1685 238.005 48.8937 238.005 44.854C238.005 40.8144 234.731 37.5395 230.693 37.5395Z" fill="url(#paint2_linear)"/>
<path d="M230.693 37.5395H173.99C169.952 37.5395 166.678 40.8144 166.678 44.854C166.678 48.8937 169.952 52.1685 173.99 52.1685H230.693C234.731 52.1685 238.005 48.8937 238.005 44.854C238.005 40.8144 234.731 37.5395 230.693 37.5395Z" fill="url(#paint3_linear)"/>
<path d="M293.005 229.872C293.006 241.844 290.639 253.698 286.042 264.75C281.445 275.802 274.709 285.835 266.221 294.27C257.733 302.706 247.661 309.377 236.586 313.899C225.511 318.421 213.651 320.705 201.69 320.62C151.636 320.262 111.073 278.829 111.686 228.739C111.897 211.473 117.026 194.626 126.47 180.176C135.913 165.725 149.28 154.272 165.001 147.159C168.914 145.39 172.234 142.528 174.564 138.918C176.893 135.308 178.134 131.102 178.136 126.805V52.16H226.598V126.822C226.601 131.122 227.842 135.331 230.173 138.944C232.504 142.557 235.826 145.421 239.742 147.193C255.621 154.392 269.09 166.019 278.537 180.683C287.984 195.347 293.007 212.425 293.005 229.872Z" fill="#68E1FD"/>
<path d="M293.005 229.872C293.006 241.844 290.639 253.698 286.042 264.75C281.445 275.802 274.709 285.835 266.221 294.27C257.733 302.706 247.661 309.377 236.586 313.899C225.511 318.421 213.651 320.705 201.69 320.62C151.636 320.262 111.073 278.829 111.686 228.739C111.897 211.473 117.026 194.626 126.47 180.176C135.913 165.725 149.28 154.272 165.001 147.159C168.914 145.39 172.234 142.528 174.564 138.918C176.893 135.308 178.134 131.102 178.136 126.805V52.16H226.598V126.822C226.601 131.122 227.842 135.331 230.173 138.944C232.504 142.557 235.826 145.421 239.742 147.193C255.621 154.392 269.09 166.019 278.537 180.683C287.984 195.347 293.007 212.425 293.005 229.872Z" fill="url(#paint4_linear)"/>
<path d="M293.005 229.872C293.006 241.844 290.639 253.698 286.042 264.75C281.445 275.802 274.709 285.835 266.221 294.27C257.733 302.706 247.661 309.377 236.586 313.899C225.511 318.421 213.651 320.705 201.69 320.62C151.636 320.262 111.073 278.829 111.686 228.739C111.897 211.473 117.026 194.626 126.47 180.176C135.913 165.725 149.28 154.272 165.001 147.159C168.914 145.39 172.234 142.528 174.564 138.918C176.893 135.308 178.134 131.102 178.136 126.805V52.16H226.598V126.822C226.601 131.122 227.842 135.331 230.173 138.944C232.504 142.557 235.826 145.421 239.742 147.193C255.621 154.392 269.09 166.019 278.537 180.683C287.984 195.347 293.007 212.425 293.005 229.872Z" fill="url(#paint5_linear)"/>
<path d="M287.702 230.043C287.702 241.194 285.498 252.235 281.216 262.53C276.934 272.825 270.659 282.171 262.753 290.028C254.846 297.885 245.465 304.098 235.148 308.311C224.832 312.523 213.785 314.65 202.644 314.57C156.02 314.238 118.241 275.642 118.811 228.986C119.01 212.905 123.789 197.214 132.585 183.755C141.382 170.297 153.832 159.629 168.474 153.004C175.914 149.596 184.222 142.226 184.222 134.047V52.1686H220.571V134.064C220.571 142.26 230.659 149.655 238.107 153.038C252.894 159.745 265.436 170.575 274.232 184.232C283.028 197.889 287.704 213.794 287.702 230.043Z" fill="url(#paint6_linear)"/>
<path d="M154.342 228.858C154.342 228.858 146.17 223.099 126.932 226.618C126.932 226.618 124.94 214.809 142.833 213.036C160.727 211.264 199.672 217.978 216.476 207.745C233.28 197.513 262.887 189.853 276.209 213.036C276.209 213.036 246.696 217.297 233.595 228.858C220.494 240.42 176.084 241.681 154.342 228.858Z" fill="#68E1FD"/>
<path d="M154.342 228.858C154.342 228.858 146.17 223.099 126.932 226.618C126.932 226.618 124.94 214.809 142.833 213.036C160.727 211.264 199.672 217.978 216.476 207.745C233.28 197.513 262.887 189.853 276.209 213.036C276.209 213.036 246.696 217.297 233.595 228.858C220.494 240.42 176.084 241.681 154.342 228.858Z" fill="url(#paint7_linear)"/>
<path d="M279.572 229.872C279.679 239.971 277.783 249.991 273.996 259.353C270.208 268.714 264.603 277.23 257.506 284.41C250.408 291.589 241.959 297.288 232.646 301.178C223.334 305.067 213.343 307.07 203.252 307.07C193.161 307.07 183.17 305.067 173.858 301.178C164.545 297.288 156.096 291.589 148.998 284.41C141.901 277.23 136.296 268.714 132.508 259.353C128.721 249.991 126.825 239.971 126.932 229.872C126.932 187.689 178.008 255.305 207.027 224.718C234.566 195.698 279.572 187.689 279.572 229.872Z" fill="#68E1FD"/>
<path d="M279.572 229.872C279.679 239.971 277.783 249.991 273.996 259.353C270.208 268.714 264.603 277.23 257.506 284.41C250.408 291.589 241.959 297.288 232.646 301.178C223.334 305.067 213.343 307.07 203.252 307.07C193.161 307.07 183.17 305.067 173.858 301.178C164.545 297.288 156.096 291.589 148.998 284.41C141.901 277.23 136.296 268.714 132.508 259.353C128.721 249.991 126.825 239.971 126.932 229.872C126.932 187.689 178.008 255.305 207.027 224.718C234.566 195.698 279.572 187.689 279.572 229.872Z" fill="url(#paint8_linear)"/>
<path d="M393.199 300.172C393.199 300.172 388.832 308.964 389.07 310.932C389.309 312.901 393.395 313.284 397.345 310.932C401.295 308.581 404.274 302.097 404.274 302.097L405.253 306.357H407.168L404.274 295.733C404.274 295.733 396.136 299.055 393.199 300.172Z" fill="#25233A"/>
<path d="M354.943 296.968C355.464 298.044 355.74 299.223 355.752 300.419C355.633 301.978 354.943 307.499 354.943 307.499H353.36V304.38C353.36 304.38 348.805 308.819 346.166 309.416C343.528 310.012 337.177 311.972 335.381 310.268C333.585 308.564 343.485 300.385 343.485 300.385L354.943 296.968Z" fill="#25233A"/>
<path d="M344.728 299.217C343.664 300.197 342.08 301.381 342.702 302.685C342.862 302.957 343.08 303.19 343.341 303.368C343.601 303.546 343.897 303.665 344.208 303.716C346.064 304.15 347.988 303.503 349.776 302.864C350.838 302.549 351.84 302.057 352.738 301.407C354.017 300.267 354.807 298.677 354.943 296.968C355.139 295.264 355.666 291.464 355.437 289.786C354.96 286.429 351.81 281.581 349.478 285.738C347.639 289.164 347.911 296.295 344.728 299.217Z" fill="url(#paint9_linear)"/>
<path d="M394.203 286.769C394.264 286.744 394.33 286.731 394.397 286.733C394.463 286.734 394.528 286.749 394.588 286.777C394.648 286.806 394.702 286.846 394.746 286.896C394.789 286.946 394.822 287.004 394.842 287.068L393.82 287.127C392.765 288.525 393.658 290.476 393.82 292.239C394.433 297.811 390.849 304.167 391.139 304.474C391.867 304.834 392.64 305.094 393.437 305.25C396.978 306.187 401.754 300.257 403.652 297.13C403.937 296.725 404.121 296.257 404.189 295.767C404.175 295.163 403.998 294.574 403.678 294.063L401.567 289.888C400.562 287.911 399.073 285.628 396.859 285.764C395.165 285.883 395.165 285.27 394.203 286.769Z" fill="url(#paint10_linear)"/>
<path d="M345.894 227.81C344.096 233.509 343.021 239.412 342.693 245.379C342.464 251.803 343.502 258.159 344.532 264.37L347.086 279.749C347.656 283.157 346.422 287.289 347.988 289.845C349.555 292.401 354.237 292.904 355.888 290.493C355.701 278.88 355.462 271.851 356.356 260.323C356.995 252.093 359.761 242.695 363.481 236.867C366.035 232.914 375.263 217.705 377.748 213.693C380.234 209.68 379.825 207.865 379.213 202.318C378.012 191.472 362.843 194.701 357.718 200.077C352.389 205.65 348.482 218.966 345.894 227.81Z" fill="#68E1FD"/>
<path d="M377.731 213.684C376.999 214.868 375.688 217.007 374.139 219.546C370.393 225.655 365.243 234.03 363.464 236.859C359.744 242.686 356.978 252.084 356.339 260.315C355.445 271.842 355.684 278.871 355.871 290.484C355.577 290.886 355.206 291.224 354.779 291.479C354.352 291.733 353.878 291.899 353.385 291.967C352.77 292.065 352.144 292.065 351.529 291.967H351.487C350.784 291.881 350.108 291.648 349.502 291.283C348.896 290.917 348.374 290.427 347.971 289.845C346.405 287.289 347.639 283.191 347.069 279.749C346.223 274.637 345.372 269.511 344.515 264.37C343.485 258.15 342.446 251.803 342.676 245.379C343.005 239.414 344.08 233.515 345.877 227.819C348.431 218.992 352.372 205.667 357.684 200.077C362.792 194.701 377.978 191.472 379.178 202.318C379.808 207.89 380.2 209.671 377.731 213.684Z" fill="url(#paint11_linear)"/>
<path d="M374.139 219.546C370.393 225.655 365.243 234.03 363.464 236.859C359.744 242.686 356.977 252.084 356.339 260.314C355.445 271.842 355.684 278.871 355.871 290.484C355.577 290.886 355.206 291.224 354.779 291.478C354.352 291.733 353.878 291.899 353.385 291.967H351.487C351.487 291.967 351.487 264.2 351.487 250.763C351.487 237.327 366.239 214.127 366.239 214.127C369.134 211.009 372.113 215.243 374.139 219.546Z" fill="url(#paint12_linear)"/>
<path d="M385.163 273.265C387.24 278.871 389.028 284.793 392.373 288.525C394.518 290.927 395.063 292.052 399.873 286.463C402.214 283.745 400.299 280.695 399.124 277.048C393.327 259.002 396.042 237.43 396.153 217.169C396.246 200.887 369.1 187.97 368.01 202.207C365.099 240.207 379.621 258.287 385.163 273.265Z" fill="#68E1FD"/>
<path d="M399.294 287.127C396.698 289.59 395.293 291.856 393.148 289.462C389.803 285.721 387.24 278.863 385.163 273.274C379.621 258.295 366.24 238.46 368.01 202.216C368.632 189.436 390.807 198.493 395.344 212.227C395.881 213.822 396.155 215.494 396.153 217.177C396.042 237.438 393.327 259.011 399.124 277.056C400.299 280.695 401.908 284.673 399.294 287.127Z" fill="url(#paint13_linear)"/>
<path d="M354.169 57.4084C360 57.664 365.167 61.1317 369.662 64.8465C370.341 65.476 371.113 65.9962 371.951 66.3886C373.024 66.8146 373.237 67.2917 374.378 67.4366C378.634 68.0074 383.205 70.6486 385.231 74.4316C387.257 78.2145 387.938 82.5768 388.245 86.8539C388.517 90.7561 388.602 94.9565 390.909 98.1089C394.484 102.991 401.601 103.221 406.828 106.271C410.667 108.567 413.45 112.282 414.574 116.615C415.494 120.142 415.323 123.848 415.8 127.461C416.277 131.073 417.622 134.856 420.652 136.833C414.855 136.756 406.504 141.178 400.699 141.093C398.622 141.093 399.056 136.518 397.064 135.981C394.968 135.303 393.007 134.265 391.267 132.914C382.991 126.906 376.753 118.507 373.39 108.844C372.079 105.036 358.527 124.274 356.944 120.568C348.431 100.588 364.605 90.6112 360.63 89.7848C357.344 89.0947 353.947 90.1852 350.585 90.0233C330.955 89.0947 335.143 56.5734 354.169 57.4084Z" fill="#25233A"/>
<path d="M331.201 130.162C326.996 130.162 322.842 129.309 318.739 128.398L304.157 125.245C303.472 125.038 302.747 125.003 302.045 125.143C301.261 125.443 300.616 126.023 300.232 126.771C297.764 130.92 299.773 136.577 303.476 139.67C307.179 142.763 312.082 143.93 316.815 144.85C323.131 146.103 329.669 147.168 335.977 145.856C343.766 144.228 354.747 141.962 360.851 136.858C361.651 136.194 358.059 132.718 358.527 131.797C358.976 130.72 359.18 129.556 359.123 128.389C359.174 125.91 368.061 109.066 365.337 107.745C362.783 106.493 352.73 120.755 351.036 122.306C345.615 127.278 338.553 130.075 331.201 130.162Z" fill="#68E1FD"/>
<path d="M359.957 134.618C360.638 135.606 361.225 136.535 360.808 136.841C354.705 141.953 343.724 144.211 335.934 145.838C329.627 147.151 323.089 146.086 316.773 144.833C312.039 143.896 307.128 142.754 303.433 139.653C302.766 139.095 302.161 138.466 301.629 137.778C301.606 137.752 301.586 137.724 301.569 137.693C299.143 134.515 298.164 130.136 300.19 126.753C300.573 126.006 301.219 125.426 302.003 125.126C302.705 124.986 303.43 125.021 304.114 125.228L318.696 128.372C322.799 129.224 326.954 130.153 331.159 130.136C338.511 130.049 345.573 127.252 350.993 122.28C352.696 120.73 362.707 106.467 365.295 107.72C368.019 109.04 359.131 125.884 359.08 128.364C359.137 129.53 358.934 130.694 358.484 131.772C358.238 132.257 359.131 133.476 359.906 134.592L359.957 134.618Z" fill="url(#paint14_linear)"/>
<path d="M300.232 126.779C300.232 126.779 301.083 124.939 302.045 125.152C303.007 125.365 305.774 133.766 301.611 137.719C301.611 137.719 298.342 130.835 300.232 126.779Z" fill="url(#paint15_linear)"/>
<path opacity="0.17" d="M360.851 136.867C354.747 141.979 343.766 144.237 335.977 145.864C329.669 147.176 323.131 146.111 316.815 144.859C312.082 143.921 307.17 142.78 303.476 139.678C302.809 139.12 302.204 138.492 301.671 137.804C301.648 137.778 301.628 137.749 301.611 137.719L301.986 131.014C302.471 131.448 305.084 132.718 316.806 136.219C333.942 141.374 355.275 130.102 355.275 130.102L359.948 134.626C360.621 135.631 361.225 136.56 360.851 136.867Z" fill="url(#paint16_linear)"/>
<path d="M407.304 211.188C407.252 212.115 406.847 212.987 406.172 213.624C405.399 214.069 404.494 214.223 403.618 214.059C401.235 213.88 398.511 213.769 395.727 213.462C392.788 213.184 389.892 212.566 387.095 211.622C377.306 208.12 368.291 201.884 365.039 200.546C362.706 199.617 353.257 202.071 351.504 200.265C347.333 196.005 354.951 189.419 356.254 183.583C358.527 173.358 363.413 163.134 361.242 152.91C360.551 150.184 359.698 147.501 358.688 144.876C356.577 138.63 353.998 129.906 355.973 123.354C357.514 118.242 359.982 110.872 364.196 107.387C369.048 103.383 370.742 105.232 377.025 105.402C381.409 105.521 393.386 110.386 394.705 112.278C408.402 132.061 405.448 170.019 407.611 198.799C408.007 202.926 407.904 207.086 407.304 211.188Z" fill="#68E1FD"/>
<path d="M407.304 211.188C407.25 212.112 406.848 212.983 406.181 213.624C405.457 214.161 402.427 209.364 401.533 209.262C395.974 208.845 392.518 212.824 387.061 211.622C386.576 210.48 386.9 209.347 388.398 208.214C396.144 202.582 393.352 144.85 391.309 129.131C396.008 130.749 393.863 111.111 394.663 112.303C408.36 132.079 405.406 170.027 407.568 198.816C407.982 202.936 407.893 207.09 407.304 211.188Z" fill="url(#paint17_linear)"/>
<path d="M388.415 208.248C386.917 209.347 386.593 210.48 387.079 211.656C379.613 210.012 372.02 203.681 365.022 200.58C362.715 199.575 353.241 202.105 351.487 200.299C347.316 196.039 354.935 189.453 356.237 183.617C358.51 173.393 363.396 163.168 361.226 152.944C360.529 150.222 359.676 147.542 358.672 144.918C356.561 138.673 353.981 129.949 355.948 123.397C357.497 118.285 359.966 110.915 364.18 107.43C369.032 103.425 370.726 105.274 377.008 105.445C378.643 105.445 391.88 111.358 394.689 112.32C396.723 128.057 396.162 202.616 388.415 208.248Z" fill="url(#paint18_linear)"/>
<path opacity="0.17" d="M362.238 148.071C362.238 148.071 364.792 159.846 362.656 167.522C360.519 175.199 354.807 199.634 354.798 200.299C354.79 200.964 358.51 201.347 358.51 201.347L378.404 187.314L384.482 193.278C384.482 193.278 397.344 184.358 406.419 170.947L406.121 163.151L363.464 186.36C364.43 184.282 365.007 182.044 365.167 179.757C365.584 175.676 368.001 156.437 362.238 148.071Z" fill="url(#paint19_linear)"/>
<path d="M359.319 125.544L356.348 130.792L362.238 148.071L363.464 147.679L362.8 129.574L359.319 125.544Z" fill="#68E1FD"/>
<path d="M359.319 125.544L356.348 130.792L362.238 148.071L363.464 147.679L362.8 129.574L359.319 125.544Z" fill="url(#paint20_linear)"/>
<path d="M362.826 126.2C362.698 133.016 362.375 144.85 363.192 143.836C366.12 140.224 380.498 105.59 375.791 104.882C370.13 104.03 363.285 102.463 362.826 126.2Z" fill="#25233A"/>
<path d="M375.756 105.717C375.756 105.717 371.143 112.014 367.363 114.468C367.167 114.594 366.94 114.661 366.708 114.663C366.475 114.665 366.247 114.6 366.05 114.477C365.852 114.354 365.694 114.177 365.594 113.967C365.493 113.757 365.454 113.523 365.482 113.292C365.665 111.938 365.665 110.565 365.482 109.211C365.352 108.177 364.959 107.194 364.341 106.356C364.04 105.974 363.667 105.656 363.243 105.419C359.387 103.264 367.499 86.9391 371.245 91.6081L375.756 105.717Z" fill="url(#paint21_linear)"/>
<path d="M336.675 75.7692C335.194 80.336 336.105 86.1637 340.225 88.6175C342.413 89.9211 345.213 90.1426 347.035 91.8893C350.159 87.97 356.799 88.2597 359.634 84.136C360.219 83.2108 360.604 82.174 360.767 81.0915C360.93 80.009 360.866 78.9045 360.579 77.8481C359.988 75.739 358.905 73.8001 357.42 72.1908C355.595 69.9809 353.215 68.2961 350.525 67.3088C343.647 64.9998 338.803 69.2513 336.675 75.7692Z" fill="#25233A"/>
<path d="M343.783 81.6566C343.502 82.466 350.976 108.793 363.251 105.419C368.861 103.877 369.73 97.6659 370.062 92.639C370.297 89.0034 370.175 85.3534 369.696 81.7418C369.696 81.7418 351.708 58.3626 343.783 81.6566Z" fill="url(#paint22_linear)"/>
<path d="M383.784 94.9139C383.597 95.3351 383.326 95.7139 382.988 96.0273C382.65 96.3407 382.252 96.5822 381.818 96.7372C380.948 97.0385 380.03 97.1715 379.111 97.1291C378.295 97.1571 377.483 97.0119 376.727 96.7031C376.033 96.3229 375.408 95.8274 374.88 95.2376C375.152 95.604 373.611 94.2237 369.959 91.3525C369.959 88.3023 371.483 81.7588 368.257 82.6279C366.997 82.9687 366.98 86.3767 366.852 86.6153C366.997 85.8485 365.95 83.9656 365.473 82.5683C362.817 82.6875 360 83.1987 356.322 78.4957C350.321 70.8276 343.885 71.3984 343.885 71.3984C347.707 68.8935 352.67 63.2106 362.988 64.8039C367.584 65.5195 369.508 69.2684 370.198 73.2047C371.39 73.7999 372.529 74.4954 373.603 75.2836C377.221 78.0356 379.332 82.3382 380.668 86.6835C381.222 88.4812 381.673 90.313 382.328 92.0682C382.69 93.075 383.18 94.0313 383.784 94.9139Z" fill="#25233A"/>
<path d="M280.883 126.609C281.879 128.313 287.795 128.066 289.191 128.807C288.732 128.807 282.943 128.551 281.436 128.585C280.33 128.585 280.338 129.889 281.155 130.289C283.13 131.295 287.719 130.988 289.293 131.448C288.612 131.192 282.935 131.806 282.211 131.866C281.232 132.036 280.193 133.518 283.377 133.817C284.671 133.936 287.829 133.817 289.396 134.157C290.247 134.319 284.109 134.609 284.007 135.487C283.794 137.259 290.119 136.807 290.596 136.85C293.575 137.131 299.338 137.915 301.611 137.702C301.611 135.316 303.152 132.104 301.118 128.33C300.811 127.759 297.602 125.944 297.27 125.416C295.729 122.996 293.865 121.105 292.001 120.679C288.893 119.98 291.634 122.587 291.754 124.692C291.915 127.367 291.285 126.592 287.497 125.893C286.706 125.765 279.913 124.99 280.883 126.609Z" fill="url(#paint23_linear)"/>
<path d="M367.925 177.073C365.593 176.884 363.246 177.159 361.021 177.883C360.89 177.911 360.773 177.983 360.689 178.087C360.639 178.184 360.621 178.294 360.638 178.402C360.749 178.832 360.995 179.215 361.34 179.494C361.685 179.773 362.11 179.934 362.553 179.953C363.439 179.967 364.324 179.913 365.201 179.791C365.643 179.791 366.222 179.936 366.231 180.387C366.221 180.527 366.177 180.661 366.103 180.779C365.368 181.786 364.29 182.489 363.073 182.756C360.663 183.521 358.152 183.915 355.624 183.923C354.51 183.865 353.392 183.913 352.287 184.068C351.938 184.136 351.538 184.298 351.487 184.656C351.492 184.792 351.529 184.925 351.596 185.043C351.662 185.162 351.756 185.263 351.87 185.338C353.436 186.65 355.675 186.667 357.718 186.607L353.555 186.956C352.858 186.935 352.172 187.144 351.606 187.553C351.785 187.877 352.029 188.162 352.321 188.389C352.614 188.616 352.95 188.781 353.309 188.873C354.028 189.063 354.769 189.155 355.513 189.146L358.867 189.223C357.289 189.175 355.719 189.465 354.262 190.075C354.144 190.111 354.04 190.182 353.964 190.279C353.811 190.543 354.109 190.85 354.381 190.995C356.714 192.222 359.489 191.907 362.119 191.557L358.22 192.469C358.042 192.512 357.829 192.597 357.82 192.776C357.822 192.816 357.832 192.856 357.849 192.893C357.867 192.929 357.892 192.962 357.922 192.989C358.175 193.204 358.502 193.311 358.833 193.287C361.639 193.546 364.467 193.221 367.142 192.333C368.332 191.87 369.487 191.32 370.598 190.688C371.197 190.393 371.767 190.042 372.3 189.64C372.828 189.175 373.302 188.652 373.713 188.081C374.709 186.795 379.791 184.733 380.668 183.37C380.784 183.213 380.863 183.033 380.898 182.841C380.898 182.475 381.153 181.376 380.898 181.137C379.996 180.285 378.77 180.234 378.344 179.075C378.14 178.564 375.705 177.567 375.492 177.065C375.195 176.375 372.939 177.414 372.241 177.457C370.795 177.434 369.352 177.306 367.925 177.073Z" fill="url(#paint24_linear)"/>
<path d="M382.592 188.098L370.513 174.193C370.513 174.193 394.118 160.561 393.148 151.675C392.177 142.788 382.728 132.215 381.528 123.558C380.328 114.902 394.672 112.329 394.672 112.329C404.393 122.758 406.462 140.761 410.846 155.202C414.719 167.761 382.592 188.098 382.592 188.098Z" fill="#68E1FD"/>
<path d="M382.592 188.098L375.782 180.226L370.539 174.193C370.539 174.193 394.144 160.561 393.174 151.675C393.031 150.45 392.766 149.243 392.382 148.071C389.828 140.019 382.592 131.073 381.554 123.584C380.328 114.962 394.672 112.329 394.672 112.329C404.393 122.758 406.462 140.761 410.846 155.202C414.719 167.761 382.592 188.098 382.592 188.098Z" fill="url(#paint25_linear)"/>
<path d="M377.076 121.837L379.196 129.369C379.196 129.369 366.58 145.566 363.464 147.679C360.349 149.792 363.966 142.643 363.966 142.643C363.966 142.643 371.432 127.878 372.002 123.695C372.573 119.511 377.076 121.837 377.076 121.837Z" fill="#68E1FD"/>
<path d="M377.076 121.837L379.196 129.369C379.196 129.369 366.58 145.566 363.464 147.679C360.349 149.792 363.966 142.643 363.966 142.643C363.966 142.643 371.432 127.878 372.002 123.695C372.573 119.511 377.076 121.837 377.076 121.837Z" fill="url(#paint26_linear)"/>
<path d="M374.888 102.991C374.888 102.991 377.893 103.698 379.196 104.882C380.498 106.067 382.754 116.504 382.754 116.504L370.641 127.853C370.641 127.853 375.68 107.941 374.888 102.991Z" fill="#68E1FD"/>
<path d="M374.888 102.991C374.888 102.991 377.893 103.698 379.196 104.882C380.498 106.067 382.754 116.504 382.754 116.504L370.641 127.853C370.641 127.853 375.68 107.941 374.888 102.991Z" fill="url(#paint27_linear)"/>
<path d="M365.49 109.211C362.673 115.575 362.656 130.783 362.656 130.783L355.752 119.946L364.35 106.356C364.968 107.194 365.361 108.177 365.49 109.211Z" fill="#68E1FD"/>
<path d="M365.49 109.211C362.673 115.575 362.656 130.783 362.656 130.783L355.752 119.946L364.35 106.356C364.968 107.194 365.361 108.177 365.49 109.211Z" fill="url(#paint28_linear)"/>
<path d="M399.294 287.127C399.294 287.127 393.386 271.391 390.858 259.556C388.329 247.722 387.078 211.614 387.078 211.614C389.875 212.558 392.771 213.175 395.71 213.454C396.007 214.667 396.155 215.911 396.153 217.16C396.042 237.421 393.326 258.994 399.123 277.039C400.298 280.695 401.907 284.673 399.294 287.127Z" fill="url(#paint29_linear)"/>
<path d="M301.994 130.783V131.014C301.764 130.809 301.994 130.783 301.994 130.783Z" fill="url(#paint30_linear)"/>
<path d="M87.1694 118.063V284.247C87.1694 298.536 77.1501 310.132 64.7642 310.132C52.3783 310.132 42.3589 298.544 42.3589 284.256V118.114L87.1694 118.063Z" fill="url(#paint31_linear)"/>
<path d="M99.862 114.919C99.8632 115.879 99.675 116.83 99.3083 117.718C98.9417 118.605 98.4037 119.412 97.7253 120.091C97.0468 120.77 96.2412 121.308 95.3546 121.675C94.4679 122.042 93.5177 122.23 92.5582 122.229H35.847C34.8663 122.263 33.8889 122.098 32.973 121.746C32.0571 121.393 31.2215 120.86 30.5159 120.177C29.8103 119.495 29.2491 118.677 28.8659 117.773C28.4827 116.869 28.2852 115.897 28.2852 114.915C28.2852 113.933 28.4827 112.961 28.8659 112.056C29.2491 111.152 29.8103 110.335 30.5159 109.652C31.2215 108.97 32.0571 108.436 32.973 108.084C33.8889 107.731 34.8663 107.567 35.847 107.6H92.5582C93.5181 107.6 94.4685 107.79 95.3552 108.158C96.2419 108.525 97.0475 109.065 97.7258 109.744C98.4041 110.424 98.942 111.231 99.3085 112.119C99.6751 113.007 99.8632 113.958 99.862 114.919Z" fill="#68E1FD"/>
<path d="M99.862 114.919C99.8632 115.879 99.675 116.83 99.3083 117.718C98.9417 118.605 98.4037 119.412 97.7253 120.091C97.0468 120.77 96.2412 121.308 95.3546 121.675C94.4679 122.042 93.5177 122.23 92.5582 122.229H35.847C34.8663 122.263 33.8889 122.098 32.973 121.746C32.0571 121.393 31.2215 120.86 30.5159 120.177C29.8103 119.495 29.2491 118.677 28.8659 117.773C28.4827 116.869 28.2852 115.897 28.2852 114.915C28.2852 113.933 28.4827 112.961 28.8659 112.056C29.2491 111.152 29.8103 110.335 30.5159 109.652C31.2215 108.97 32.0571 108.436 32.973 108.084C33.8889 107.731 34.8663 107.567 35.847 107.6H92.5582C93.5181 107.6 94.4685 107.79 95.3552 108.158C96.2419 108.525 97.0475 109.065 97.7258 109.744C98.4041 110.424 98.942 111.231 99.3085 112.119C99.6751 113.007 99.8632 113.958 99.862 114.919Z" fill="url(#paint32_linear)"/>
<path d="M202.346 58.303V142.95C202.348 143.635 202.233 144.315 202.005 144.961C200.83 148.301 195.57 156.94 184.384 163.185C157.859 177.993 149.21 215.073 148.256 216.172C144.936 219.997 136.909 227.018 128.141 218.259C116.632 206.783 141.191 173.452 149.048 165.239C160.114 153.686 183.422 150.49 183.746 139.619C184.009 130.622 183.839 76.7235 183.746 58.3201C183.742 57.5127 183.898 56.7127 184.205 55.9659C184.512 55.2192 184.963 54.5405 185.532 53.9688C186.102 53.3971 186.779 52.9438 187.524 52.6348C188.269 52.3259 189.068 52.1674 189.875 52.1686H196.183C196.99 52.1641 197.791 52.3194 198.538 52.6257C199.286 52.932 199.966 53.3831 200.538 53.9532C201.111 54.5233 201.566 55.2011 201.876 55.9476C202.186 56.6941 202.346 57.4946 202.346 58.303Z" fill="url(#paint33_linear)"/>
<path d="M138.867 260.204C146.455 260.204 152.606 254.047 152.606 246.452C152.606 238.858 146.455 232.701 138.867 232.701C131.279 232.701 125.127 238.858 125.127 246.452C125.127 254.047 131.279 260.204 138.867 260.204Z" fill="url(#paint34_linear)"/>
<path d="M397.345 163.185C395.31 168.928 375.756 180.226 375.756 180.226L370.513 174.193C370.513 174.193 394.118 160.561 393.148 151.675C393.005 150.45 392.74 149.243 392.356 148.071C392.356 148.071 399.379 157.443 397.345 163.185Z" fill="url(#paint35_linear)"/>
<path d="M367.082 87.9103C367.082 87.9103 368.785 88.0552 368.308 86.6749C367.831 85.2947 368.248 83.4714 369.21 83.6162C370.172 83.7611 369.508 89.0606 368.861 89.4695C368.214 89.8785 367.082 87.9103 367.082 87.9103Z" fill="url(#paint36_linear)"/>
<path opacity="0.25" d="M166.678 25.5944C173.739 25.5944 179.464 19.8649 179.464 12.7972C179.464 5.72949 173.739 0 166.678 0C159.616 0 153.892 5.72949 153.892 12.7972C153.892 19.8649 159.616 25.5944 166.678 25.5944Z" fill="#68E1FD"/>
<path opacity="0.25" d="M87.1697 68.476C92.4635 68.476 96.7549 64.1808 96.7549 58.8824C96.7549 53.584 92.4635 49.2888 87.1697 49.2888C81.8759 49.2888 77.5845 53.584 77.5845 58.8824C77.5845 64.1808 81.8759 68.476 87.1697 68.476Z" fill="#68E1FD"/>
</g>
<defs>
<linearGradient id="paint0_linear" x1="64.3895" y1="71.9267" x2="64.867" y2="242.252" gradientUnits="userSpaceOnUse">
<stop stop-color="white" stop-opacity="0"/>
<stop offset="0.97" stop-color="white"/>
</linearGradient>
<linearGradient id="paint1_linear" x1="64.2277" y1="171.654" x2="70.7086" y2="498.391" gradientUnits="userSpaceOnUse">
<stop stop-opacity="0"/>
<stop offset="0.97"/>
</linearGradient>
<linearGradient id="paint2_linear" x1="16966.4" y1="702.427" x2="16997" y2="1197.77" gradientUnits="userSpaceOnUse">
<stop stop-color="white" stop-opacity="0"/>
<stop offset="0.97" stop-color="white"/>
</linearGradient>
<linearGradient id="paint3_linear" x1="17069.9" y1="1021.05" x2="17073.2" y2="686.575" gradientUnits="userSpaceOnUse">
<stop stop-color="white" stop-opacity="0"/>
<stop offset="0.97" stop-color="white"/>
</linearGradient>
<linearGradient id="paint4_linear" x1="43586.4" y1="74182.6" x2="19391" y2="65481.9" gradientUnits="userSpaceOnUse">
<stop stop-color="white" stop-opacity="0"/>
<stop offset="0.97" stop-color="white"/>
</linearGradient>
<linearGradient id="paint5_linear" x1="48027.1" y1="49712.3" x2="69026.6" y2="-27087.4" gradientUnits="userSpaceOnUse">
<stop stop-color="white" stop-opacity="0"/>
<stop offset="0.97" stop-color="white"/>
</linearGradient>
<linearGradient id="paint6_linear" x1="-48817.5" y1="74553.9" x2="178657" y2="71247.1" gradientUnits="userSpaceOnUse">
<stop stop-color="white" stop-opacity="0"/>
<stop offset="0.97" stop-color="white"/>
</linearGradient>
<linearGradient id="paint7_linear" x1="37748" y1="13956.5" x2="35466.7" y2="-1882.34" gradientUnits="userSpaceOnUse">
<stop stop-opacity="0"/>
<stop offset="0.97"/>
</linearGradient>
<linearGradient id="paint8_linear" x1="34501.9" y1="35413.7" x2="74119.2" y2="73552.5" gradientUnits="userSpaceOnUse">
<stop stop-opacity="0"/>
<stop offset="0.97"/>
</linearGradient>
<linearGradient id="paint9_linear" x1="342.557" y1="293.994" x2="355.496" y2="293.994" gradientUnits="userSpaceOnUse">
<stop stop-color="#ECC4D7"/>
<stop offset="0.42" stop-color="#EFD4D1"/>
<stop offset="1" stop-color="#F2EAC9"/>
</linearGradient>
<linearGradient id="paint10_linear" x1="6400.55" y1="8206.01" x2="6601.38" y2="8206.01" gradientUnits="userSpaceOnUse">
<stop stop-color="#ECC4D7"/>
<stop offset="0.42" stop-color="#EFD4D1"/>
<stop offset="1" stop-color="#F2EAC9"/>
</linearGradient>
<linearGradient id="paint11_linear" x1="15464.6" y1="33180.8" x2="16655.7" y2="33251.2" gradientUnits="userSpaceOnUse">
<stop stop-opacity="0"/>
<stop offset="0.97"/>
</linearGradient>
<linearGradient id="paint12_linear" x1="9712.5" y1="28098.4" x2="10315.7" y2="28098.4" gradientUnits="userSpaceOnUse">
<stop stop-opacity="0"/>
<stop offset="0.97"/>
</linearGradient>
<linearGradient id="paint13_linear" x1="14773.9" y1="32670.7" x2="16072.5" y2="32621.4" gradientUnits="userSpaceOnUse">
<stop stop-opacity="0"/>
<stop offset="0.97"/>
</linearGradient>
<linearGradient id="paint14_linear" x1="26400.2" y1="8981.89" x2="26395.9" y2="8086.39" gradientUnits="userSpaceOnUse">
<stop stop-color="white" stop-opacity="0"/>
<stop offset="0.97" stop-color="white"/>
</linearGradient>
<linearGradient id="paint15_linear" x1="1826.86" y1="2748.08" x2="1651.07" y2="2765.99" gradientUnits="userSpaceOnUse">
<stop stop-opacity="0"/>
<stop offset="0.97"/>
</linearGradient>
<linearGradient id="paint16_linear" x1="23606.5" y1="3709.6" x2="24868.1" y2="6554.61" gradientUnits="userSpaceOnUse">
<stop stop-opacity="0"/>
<stop offset="0.97"/>
</linearGradient>
<linearGradient id="paint17_linear" x1="9750.29" y1="25470.1" x2="10414" y2="25460.1" gradientUnits="userSpaceOnUse">
<stop stop-color="white" stop-opacity="0"/>
<stop offset="0.97" stop-color="white"/>
</linearGradient>
<linearGradient id="paint18_linear" x1="18800.2" y1="25800.5" x2="20487.9" y2="25839.1" gradientUnits="userSpaceOnUse">
<stop stop-color="white" stop-opacity="0"/>
<stop offset="0.97" stop-color="white"/>
</linearGradient>
<linearGradient id="paint19_linear" x1="21455.8" y1="18013.2" x2="26178.2" y2="8337.86" gradientUnits="userSpaceOnUse">
<stop stop-opacity="0"/>
<stop offset="0.97"/>
</linearGradient>
<linearGradient id="paint20_linear" x1="3335.42" y1="3742.72" x2="3394.91" y2="3742.72" gradientUnits="userSpaceOnUse">
<stop stop-color="white" stop-opacity="0"/>
<stop offset="0.97" stop-color="white"/>
</linearGradient>
<linearGradient id="paint21_linear" x1="6199.86" y1="4277.11" x2="6425.29" y2="4464.16" gradientUnits="userSpaceOnUse">
<stop stop-color="#ECC4D7"/>
<stop offset="0.42" stop-color="#EFD4D1"/>
<stop offset="1" stop-color="#F2EAC9"/>
</linearGradient>
<linearGradient id="paint22_linear" x1="11110.3" y1="5087.72" x2="11759.1" y2="5625.93" gradientUnits="userSpaceOnUse">
<stop stop-color="#ECC4D7"/>
<stop offset="0.42" stop-color="#EFD4D1"/>
<stop offset="1" stop-color="#F2EAC9"/>
</linearGradient>
<linearGradient id="paint23_linear" x1="7407.54" y1="3703.29" x2="7955.52" y2="3703.29" gradientUnits="userSpaceOnUse">
<stop stop-color="#ECC4D7"/>
<stop offset="0.42" stop-color="#EFD4D1"/>
<stop offset="1" stop-color="#F2EAC9"/>
</linearGradient>
<linearGradient id="paint24_linear" x1="12553.2" y1="4713.13" x2="13576.5" y2="4713.13" gradientUnits="userSpaceOnUse">
<stop stop-color="#ECC4D7"/>
<stop offset="0.42" stop-color="#EFD4D1"/>
<stop offset="1" stop-color="#F2EAC9"/>
</linearGradient>
<linearGradient id="paint25_linear" x1="18887.9" y1="17809.7" x2="19490" y2="17704.2" gradientUnits="userSpaceOnUse">
<stop stop-color="white" stop-opacity="0"/>
<stop offset="0.97" stop-color="white"/>
</linearGradient>
<linearGradient id="paint26_linear" x1="7682.09" y1="5877.41" x2="7975.18" y2="5928.24" gradientUnits="userSpaceOnUse">
<stop stop-color="white" stop-opacity="0"/>
<stop offset="0.97" stop-color="white"/>
</linearGradient>
<linearGradient id="paint27_linear" x1="5683.73" y1="4888.11" x2="5856.22" y2="4888.11" gradientUnits="userSpaceOnUse">
<stop stop-color="white" stop-opacity="0"/>
<stop offset="0.97" stop-color="white"/>
</linearGradient>
<linearGradient id="paint28_linear" x1="4429.14" y1="4897.98" x2="4540.55" y2="4897.98" gradientUnits="userSpaceOnUse">
<stop stop-color="white" stop-opacity="0"/>
<stop offset="0.97" stop-color="white"/>
</linearGradient>
<linearGradient id="paint29_linear" x1="6586.68" y1="26618" x2="6804.65" y2="26618" gradientUnits="userSpaceOnUse">
<stop stop-opacity="0"/>
<stop offset="0.97"/>
</linearGradient>
<linearGradient id="paint30_linear" x1="338.164" y1="179.237" x2="338.177" y2="179.237" gradientUnits="userSpaceOnUse">
<stop stop-opacity="0"/>
<stop offset="0.97"/>
</linearGradient>
<linearGradient id="paint31_linear" x1="3344.45" y1="59309.7" x2="2019.74" y2="59312.7" gradientUnits="userSpaceOnUse">
<stop stop-color="white" stop-opacity="0"/>
<stop offset="0.97" stop-color="white"/>
</linearGradient>
<linearGradient id="paint32_linear" x1="5473.14" y1="3130.4" x2="5472.03" y2="2850.13" gradientUnits="userSpaceOnUse">
<stop stop-color="white" stop-opacity="0"/>
<stop offset="0.97" stop-color="white"/>
</linearGradient>
<linearGradient id="paint33_linear" x1="14063.9" y1="28325.7" x2="38922" y2="73652.2" gradientUnits="userSpaceOnUse">
<stop stop-color="white" stop-opacity="0"/>
<stop offset="0.97" stop-color="white"/>
</linearGradient>
<linearGradient id="paint34_linear" x1="4067.51" y1="6490.7" x2="5400.43" y2="10671.6" gradientUnits="userSpaceOnUse">
<stop stop-color="white" stop-opacity="0"/>
<stop offset="0.97" stop-color="white"/>
</linearGradient>
<linearGradient id="paint35_linear" x1="13368.9" y1="8257.21" x2="12170.8" y2="8159.84" gradientUnits="userSpaceOnUse">
<stop stop-color="white" stop-opacity="0"/>
<stop offset="0.97" stop-color="white"/>
</linearGradient>
<linearGradient id="paint36_linear" x1="1496.57" y1="1020.74" x2="1501.95" y2="1021.19" gradientUnits="userSpaceOnUse">
<stop stop-color="#ECC4D7"/>
<stop offset="0.42" stop-color="#EFD4D1"/>
<stop offset="1" stop-color="#F2EAC9"/>
</linearGradient>
<clipPath id="clip0">
<rect width="434" height="322" fill="white"/>
</clipPath>
</defs>
</svg>
