<svg width="62" height="65" viewBox="0 0 62 65" fill="none" xmlns="http://www.w3.org/2000/svg">
<g clip-path="url(#clip0)">
<path d="M30.5498 0.283661C13.6833 0.283661 0.00526665 14.7888 0.00526665 32.6822C-0.00162436 39.4731 2.01196 46.0946 5.76145 51.6109C9.51094 57.1271 14.8067 61.2591 20.9003 63.423C22.4277 63.7215 22.9852 62.7211 22.9852 61.8619C22.9852 61.0915 22.9585 59.0545 22.9432 56.3519C14.447 58.3083 12.6523 52.0076 12.6523 52.0076C11.2661 48.2644 9.2614 47.2681 9.2614 47.2681C6.48532 45.2593 9.4676 45.2996 9.4676 45.2996C12.5339 45.5295 14.1453 48.6395 14.1453 48.6395C16.8717 53.5888 21.2974 52.1609 23.0387 51.33C23.3136 49.2365 24.1041 47.8086 24.9785 46.9978C18.1968 46.179 11.0638 43.3997 11.0638 30.9881C11.0638 27.4505 12.2551 24.5584 14.2102 22.2915C13.8933 21.4726 12.847 18.1771 14.5081 13.7199C14.5081 13.7199 17.0741 12.8486 22.9089 17.0396C25.4014 16.32 27.9734 15.9538 30.5574 15.9505C33.1414 15.9559 35.7134 16.3235 38.2059 17.0436C44.0368 12.8526 46.5991 13.7239 46.5991 13.7239C48.2639 18.1852 47.2177 21.4767 46.9045 22.2955C48.8635 24.5624 50.0434 27.4546 50.0434 30.9921C50.0434 43.4361 42.9027 46.1749 36.0981 46.9776C37.194 47.978 38.1716 49.9545 38.1716 52.9757C38.1716 57.3079 38.1334 60.8011 38.1334 61.8619C38.1334 62.7292 38.6832 63.7376 40.2336 63.4189C46.3212 61.25 51.6104 57.1164 55.3547 51.6015C59.099 46.0866 61.1093 39.4688 61.1019 32.6822C61.1019 14.7888 47.4239 0.283661 30.5498 0.283661Z" fill="#5C6BC0"/>
</g>
<defs>
<clipPath id="clip0">
<rect width="61.0966" height="64.539" fill="white" transform="translate(0.00524902 0.283661)"/>
</clipPath>
</defs>
</svg>
