<svg width="62" height="66" viewBox="0 0 62 66" fill="none" xmlns="http://www.w3.org/2000/svg">
<g clip-path="url(#clip0)">
<path d="M60.3858 33.0967C60.3858 50.5003 47.0288 64.6099 30.5535 64.6099C14.0781 64.6099 0.721191 50.5003 0.721191 33.0967C0.721191 15.693 14.0781 1.58349 30.5535 1.58349C47.0288 1.58349 60.3858 15.693 60.3858 33.0967Z" fill="#0A7BBA"/>
<path d="M48.3766 35.6311V48.6242H41.2464V36.5033C41.2464 33.4588 40.2181 31.3796 37.6344 31.3796C35.6663 31.3796 34.4951 32.7812 33.9784 34.1363C33.7889 34.6191 33.7421 35.2911 33.7421 35.9714V48.6243H26.6093C26.6093 48.6243 26.7054 28.0937 26.6093 25.9683H33.7421V29.1799C33.7292 29.2046 33.7084 29.2289 33.6953 29.2536H33.7421V29.1799C34.6899 27.6386 36.3802 25.4359 40.1687 25.4359C44.8608 25.4359 48.3766 28.6752 48.3766 35.6311ZM19.1519 15.0484C16.7111 15.0484 15.1168 16.7408 15.1168 18.9626C15.1168 21.1376 16.6644 22.8764 19.0585 22.8764H19.1027C21.5902 22.8764 23.1378 21.1377 23.1378 18.9626C23.091 16.7409 21.5902 15.0484 19.1519 15.0484ZM15.5401 48.6243H22.6677V25.9683H15.5401V48.6243Z" fill="#F2F2F2"/>
</g>
<defs>
<clipPath id="clip0">
<rect width="61.0966" height="64.539" fill="white" transform="translate(0.00524902 0.716339)"/>
</clipPath>
</defs>
</svg>
