<svg width="277" height="167" viewBox="0 0 277 167" fill="none" xmlns="http://www.w3.org/2000/svg">
<g clip-path="url(#clip0)">
<path d="M89.8906 73.5938V54.2969C92.4141 54.2969 94.3438 52.3672 94.3438 49.8438C94.3438 47.3203 92.4141 45.3906 89.8906 45.3906H67.625C65.1016 45.3906 63.1719 47.3203 63.1719 49.8438C63.1719 52.3672 65.1016 54.2969 67.625 54.2969V73.5938L45.6562 98.2344C43.5781 100.461 42.3906 103.578 42.3906 106.695V106.844C42.3906 113.82 48.0313 119.609 55.1563 119.609H103.844C110.82 119.609 116.609 113.969 116.609 106.844C116.609 103.578 115.422 100.461 113.195 98.0859L89.8906 73.5938Z" fill="#FDF2DD"/>
<path d="M103.844 121.094H55.1563C47.2891 121.094 40.9062 114.711 40.9062 106.844V106.695C40.9062 103.133 42.2422 99.8672 44.4687 97.1953L66.1406 73V55.6328C63.6172 55.0391 61.6875 52.6641 61.6875 49.8438C61.6875 46.5781 64.3594 43.9062 67.625 43.9062H89.8906C93.1562 43.9062 95.8281 46.5781 95.8281 49.8438C95.8281 52.6641 93.8984 54.8906 91.375 55.6328V73L114.234 97.0469C116.758 99.7188 118.094 103.133 118.094 106.844C118.094 114.711 111.711 121.094 103.844 121.094ZM67.625 46.875C65.9922 46.875 64.6562 48.2109 64.6562 49.8438C64.6562 51.4766 65.9922 52.8125 67.625 52.8125C68.5156 52.8125 69.1094 53.4062 69.1094 54.2969V73.5938C69.1094 73.8906 68.9609 74.3359 68.6641 74.6328L46.6953 99.125C44.9141 101.203 43.875 103.875 43.875 106.695V106.844C43.875 113.078 48.9219 118.125 55.1563 118.125H103.844C110.078 118.125 115.125 113.078 115.125 106.844C115.125 104.023 114.086 101.203 112.008 99.125L88.8516 74.6328C88.5547 74.3359 88.4062 74.0391 88.4062 73.5938V54.2969C88.4062 53.4062 89 52.8125 89.8906 52.8125C91.5234 52.8125 92.8594 51.4766 92.8594 49.8438C92.8594 48.2109 91.5234 46.875 89.8906 46.875H67.625Z" fill="#0F283A"/>
<path d="M110.672 106.844C110.672 110.555 107.555 113.672 103.844 113.672H55.1563C51.4453 113.672 48.3281 110.555 48.3281 106.844V106.695C48.3281 105.062 48.9219 103.43 50.1094 102.094L60.5 90.5156C78.7578 97.4922 80.0938 83.9844 96.5703 89.0313L109.039 102.094C110.078 103.43 110.672 105.211 110.672 106.844Z" fill="#61A838"/>
<path d="M103.844 115.156H55.1563C50.5547 115.156 46.8438 111.445 46.8438 106.844V106.695C46.8438 104.617 47.5859 102.688 48.9219 101.203L59.3125 89.625C59.7578 89.1797 60.3516 89.0313 60.9453 89.1797C70 92.5938 74.4531 90.8125 79.2031 88.8828C83.8047 86.9531 88.5547 85.0234 96.8672 87.6953C97.1641 87.8438 97.3125 87.8438 97.4609 88.1406L109.93 101.203C111.414 102.836 112.156 104.766 112.156 106.844C112.156 111.445 108.445 115.156 103.844 115.156ZM60.9453 92.2969L51.2969 103.133C50.4062 104.172 49.9609 105.359 49.9609 106.695V106.844C49.9609 109.813 52.3359 112.188 55.3047 112.188H103.992C106.961 112.188 109.336 109.813 109.336 106.844C109.336 105.508 108.891 104.172 108 103.281L95.8281 90.5156C88.7031 88.4375 84.8438 90.0703 80.5391 91.7031C75.4922 93.6328 70.4453 95.7109 60.9453 92.2969Z" fill="#0F283A"/>
<path d="M74.3047 84.7266C75.9443 84.7266 77.2734 83.3974 77.2734 81.7578C77.2734 80.1182 75.9443 78.7891 74.3047 78.7891C72.6651 78.7891 71.3359 80.1182 71.3359 81.7578C71.3359 83.3974 72.6651 84.7266 74.3047 84.7266Z" fill="#89C060"/>
<path d="M74.3047 86.2109C71.7812 86.2109 69.8516 84.2812 69.8516 81.7578C69.8516 79.2344 71.7812 77.3047 74.3047 77.3047C76.8281 77.3047 78.7578 79.2344 78.7578 81.7578C78.7578 84.2812 76.8281 86.2109 74.3047 86.2109ZM74.3047 80.2734C73.4141 80.2734 72.8203 80.8672 72.8203 81.7578C72.8203 82.6484 73.4141 83.2422 74.3047 83.2422C75.1953 83.2422 75.7891 82.6484 75.7891 81.7578C75.7891 80.8672 75.1953 80.2734 74.3047 80.2734Z" fill="#0F283A"/>
<path d="M91.375 107.734C93.8344 107.734 95.8281 105.741 95.8281 103.281C95.8281 100.822 93.8344 98.8281 91.375 98.8281C88.9156 98.8281 86.9219 100.822 86.9219 103.281C86.9219 105.741 88.9156 107.734 91.375 107.734Z" fill="#89C060"/>
<path d="M91.375 109.219C88.1094 109.219 85.4375 106.547 85.4375 103.281C85.4375 100.016 88.1094 97.3438 91.375 97.3438C94.6406 97.3438 97.3125 100.016 97.3125 103.281C97.3125 106.547 94.6406 109.219 91.375 109.219ZM91.375 100.312C89.7422 100.312 88.4062 101.648 88.4062 103.281C88.4062 104.914 89.7422 106.25 91.375 106.25C93.0078 106.25 94.3438 104.914 94.3438 103.281C94.3438 101.648 93.0078 100.312 91.375 100.312Z" fill="#0F283A"/>
<path d="M65.3984 106.25C66.6281 106.25 67.625 105.253 67.625 104.023C67.625 102.794 66.6281 101.797 65.3984 101.797C64.1687 101.797 63.1719 102.794 63.1719 104.023C63.1719 105.253 64.1687 106.25 65.3984 106.25Z" fill="#89C060"/>
<path d="M65.3984 107.734C63.3203 107.734 61.6875 106.102 61.6875 104.023C61.6875 101.945 63.3203 100.312 65.3984 100.312C67.4766 100.312 69.1094 101.945 69.1094 104.023C69.1094 106.102 67.4766 107.734 65.3984 107.734ZM65.3984 103.281C64.9531 103.281 64.6562 103.578 64.6562 104.023C64.6562 104.469 64.9531 104.766 65.3984 104.766C65.8438 104.766 66.1406 104.469 66.1406 104.023C66.1406 103.578 65.8438 103.281 65.3984 103.281Z" fill="#0F283A"/>
<path d="M83.9531 55.7812H66.1406C65.25 55.7812 64.6562 55.1875 64.6562 54.2969C64.6562 53.4062 65.25 52.8125 66.1406 52.8125H83.9531C84.8438 52.8125 85.4375 53.4062 85.4375 54.2969C85.4375 55.1875 84.8438 55.7812 83.9531 55.7812Z" fill="#0F283A"/>
</g>
<mask id="path-12-inside-1" fill="white">
<path fill-rule="evenodd" clip-rule="evenodd" d="M127.62 131.831C116.202 131.109 101.238 129.088 101.238 129.088C99.2832 128.991 97.2066 131.906 96.0471 136.374C94.8875 140.842 95.4179 143.885 97.3731 143.982C97.3731 143.982 136.529 149.635 139.184 146.98L142.724 143.44C142.933 142.636 143.019 141.616 143.014 140.502C143.078 140.196 143.105 139.909 143.093 139.651L141.156 100.547C141.059 98.592 138.016 98.0615 133.548 99.2211C129.08 100.381 126.165 102.457 126.262 104.412L127.62 131.831Z"/>
</mask>
<path fill-rule="evenodd" clip-rule="evenodd" d="M127.62 131.831C116.202 131.109 101.238 129.088 101.238 129.088C99.2832 128.991 97.2066 131.906 96.0471 136.374C94.8875 140.842 95.4179 143.885 97.3731 143.982C97.3731 143.982 136.529 149.635 139.184 146.98L142.724 143.44C142.933 142.636 143.019 141.616 143.014 140.502C143.078 140.196 143.105 139.909 143.093 139.651L141.156 100.547C141.059 98.592 138.016 98.0615 133.548 99.2211C129.08 100.381 126.165 102.457 126.262 104.412L127.62 131.831Z" fill="#89C060"/>
<path d="M101.238 129.088L101.64 126.115L101.514 126.098L101.387 126.092L101.238 129.088ZM127.62 131.831L127.431 134.825L130.782 135.037L130.616 131.682L127.62 131.831ZM96.0471 136.374L98.9509 137.127L96.0471 136.374ZM97.3731 143.982L97.8018 141.013L97.6623 140.993L97.5215 140.986L97.3731 143.982ZM139.184 146.98L141.306 149.101L141.306 149.101L139.184 146.98ZM142.724 143.44L144.846 145.561L145.423 144.984L145.628 144.193L142.724 143.44ZM143.014 140.502L140.077 139.891L140.012 140.2L140.014 140.515L143.014 140.502ZM143.093 139.651L146.089 139.503L146.089 139.503L143.093 139.651ZM141.156 100.547L138.16 100.696L138.16 100.696L141.156 100.547ZM133.548 99.2211L132.794 96.3173L132.794 96.3173L133.548 99.2211ZM126.262 104.412L129.259 104.264L129.259 104.264L126.262 104.412ZM101.238 129.088C100.837 132.061 100.837 132.061 100.837 132.061C100.837 132.061 100.838 132.061 100.838 132.061C100.838 132.061 100.839 132.062 100.84 132.062C100.842 132.062 100.845 132.062 100.849 132.063C100.857 132.064 100.868 132.065 100.883 132.067C100.912 132.071 100.956 132.077 101.013 132.085C101.127 132.1 101.295 132.122 101.513 132.151C101.948 132.208 102.582 132.29 103.377 132.391C104.967 132.593 107.206 132.87 109.804 133.169C114.989 133.766 121.645 134.459 127.431 134.825L127.809 128.837C122.177 128.481 115.642 127.802 110.491 127.208C107.92 126.912 105.705 126.639 104.133 126.439C103.347 126.339 102.722 126.258 102.294 126.202C102.08 126.174 101.916 126.152 101.805 126.137C101.75 126.13 101.708 126.124 101.681 126.121C101.667 126.119 101.656 126.117 101.649 126.117C101.646 126.116 101.644 126.116 101.642 126.116C101.641 126.115 101.641 126.115 101.64 126.115C101.64 126.115 101.64 126.115 101.64 126.115C101.64 126.115 101.64 126.115 101.238 129.088ZM98.9509 137.127C99.4709 135.124 100.155 133.648 100.788 132.76C101.529 131.72 101.697 132.115 101.09 132.085L101.387 126.092C98.8241 125.965 96.977 127.768 95.9011 129.278C94.7167 130.941 93.7828 133.156 93.1433 135.62L98.9509 137.127ZM97.5215 140.986C97.8992 141.005 98.2727 141.208 98.4849 141.463C98.6279 141.635 98.5604 141.663 98.4975 141.302C98.3698 140.569 98.4219 139.166 98.9509 137.127L93.1433 135.62C92.5127 138.05 92.2502 140.402 92.5866 142.332C92.7558 143.303 93.1151 144.389 93.8711 145.299C94.6965 146.292 95.8694 146.911 97.2248 146.979L97.5215 140.986ZM137.063 144.858C137.519 144.402 137.917 144.384 137.573 144.467C137.363 144.518 136.985 144.578 136.401 144.622C135.244 144.708 133.628 144.71 131.647 144.634C127.706 144.481 122.643 144.032 117.602 143.493C112.574 142.956 107.622 142.336 103.924 141.85C102.076 141.606 100.543 141.397 99.4734 141.248C98.9385 141.174 98.5194 141.115 98.2346 141.075C98.0923 141.055 97.9834 141.039 97.9105 141.029C97.8741 141.023 97.8466 141.019 97.8284 141.017C97.8192 141.015 97.8125 141.014 97.808 141.014C97.8058 141.014 97.8041 141.013 97.8031 141.013C97.8026 141.013 97.8022 141.013 97.802 141.013C97.8018 141.013 97.8018 141.013 97.3731 143.982C96.9445 146.951 96.9448 146.951 96.9452 146.951C96.9455 146.952 96.9461 146.952 96.9467 146.952C96.9481 146.952 96.95 146.952 96.9525 146.953C96.9576 146.953 96.965 146.954 96.9747 146.956C96.9941 146.959 97.0228 146.963 97.0606 146.968C97.136 146.979 97.2474 146.995 97.3924 147.015C97.6825 147.056 98.1073 147.116 98.6483 147.191C99.7301 147.342 101.277 147.553 103.141 147.798C106.868 148.289 111.871 148.915 116.964 149.46C122.045 150.002 127.268 150.469 131.415 150.629C133.478 150.709 135.357 150.717 136.85 150.605C137.591 150.549 138.327 150.458 138.981 150.3C139.503 150.174 140.518 149.889 141.306 149.101L137.063 144.858ZM140.603 141.318L137.063 144.858L141.306 149.101L144.846 145.561L140.603 141.318ZM140.014 140.515C140.018 141.507 139.937 142.237 139.821 142.686L145.628 144.193C145.929 143.035 146.019 141.726 146.014 140.489L140.014 140.515ZM145.951 141.114C146.053 140.623 146.117 140.075 146.089 139.503L140.096 139.8C140.095 139.768 140.097 139.76 140.095 139.779C140.093 139.797 140.089 139.834 140.077 139.891L145.951 141.114ZM146.089 139.503L144.153 100.399L138.16 100.696L140.096 139.8L146.089 139.503ZM144.153 100.399C144.085 99.0435 143.466 97.8705 142.473 97.0452C141.563 96.2891 140.477 95.9299 139.506 95.7607C137.576 95.4243 135.224 95.6867 132.794 96.3173L134.301 102.125C136.34 101.596 137.743 101.544 138.476 101.672C138.837 101.734 138.809 101.802 138.637 101.659C138.382 101.447 138.179 101.073 138.16 100.696L144.153 100.399ZM132.794 96.3173C130.33 96.9569 128.115 97.8907 126.452 99.0752C124.942 100.151 123.139 101.998 123.266 104.561L129.259 104.264C129.289 104.871 128.894 104.703 129.934 103.962C130.822 103.329 132.298 102.645 134.301 102.125L132.794 96.3173ZM123.266 104.561L124.624 131.979L130.616 131.682L129.259 104.264L123.266 104.561Z" fill="#0F283A" mask="url(#path-12-inside-1)"/>
<mask id="path-14-inside-2" fill="white">
<path fill-rule="evenodd" clip-rule="evenodd" d="M127.62 131.831C116.202 131.109 101.238 129.088 101.238 129.088C99.2832 128.991 97.2066 131.906 96.0471 136.374C94.8875 140.842 95.4179 143.885 97.3731 143.982C97.3731 143.982 136.529 149.635 139.184 146.98L142.724 143.44C142.933 142.636 143.019 141.616 143.014 140.502C143.078 140.196 143.105 139.909 143.093 139.651L141.156 100.547C141.059 98.592 138.016 98.0615 133.548 99.2211C129.08 100.381 126.165 102.457 126.262 104.412L127.62 131.831Z"/>
</mask>
<path fill-rule="evenodd" clip-rule="evenodd" d="M127.62 131.831C116.202 131.109 101.238 129.088 101.238 129.088C99.2832 128.991 97.2066 131.906 96.0471 136.374C94.8875 140.842 95.4179 143.885 97.3731 143.982C97.3731 143.982 136.529 149.635 139.184 146.98L142.724 143.44C142.933 142.636 143.019 141.616 143.014 140.502C143.078 140.196 143.105 139.909 143.093 139.651L141.156 100.547C141.059 98.592 138.016 98.0615 133.548 99.2211C129.08 100.381 126.165 102.457 126.262 104.412L127.62 131.831Z" fill="#89C060"/>
<path d="M101.238 129.088L101.64 126.115L101.514 126.098L101.387 126.092L101.238 129.088ZM127.62 131.831L127.431 134.825L130.782 135.037L130.616 131.682L127.62 131.831ZM96.0471 136.374L98.9509 137.127L96.0471 136.374ZM97.3731 143.982L97.8018 141.013L97.6623 140.993L97.5215 140.986L97.3731 143.982ZM139.184 146.98L141.306 149.101L141.306 149.101L139.184 146.98ZM142.724 143.44L144.846 145.561L145.423 144.984L145.628 144.193L142.724 143.44ZM143.014 140.502L140.077 139.891L140.012 140.2L140.014 140.515L143.014 140.502ZM143.093 139.651L146.089 139.503L146.089 139.503L143.093 139.651ZM141.156 100.547L138.16 100.696L138.16 100.696L141.156 100.547ZM133.548 99.2211L132.794 96.3173L132.794 96.3173L133.548 99.2211ZM126.262 104.412L129.259 104.264L129.259 104.264L126.262 104.412ZM101.238 129.088C100.837 132.061 100.837 132.061 100.837 132.061C100.837 132.061 100.838 132.061 100.838 132.061C100.838 132.061 100.839 132.062 100.84 132.062C100.842 132.062 100.845 132.062 100.849 132.063C100.857 132.064 100.868 132.065 100.883 132.067C100.912 132.071 100.956 132.077 101.013 132.085C101.127 132.1 101.295 132.122 101.513 132.151C101.948 132.208 102.582 132.29 103.377 132.391C104.967 132.593 107.206 132.87 109.804 133.169C114.989 133.766 121.645 134.459 127.431 134.825L127.809 128.837C122.177 128.481 115.642 127.802 110.491 127.208C107.92 126.912 105.705 126.639 104.133 126.439C103.347 126.339 102.722 126.258 102.294 126.202C102.08 126.174 101.916 126.152 101.805 126.137C101.75 126.13 101.708 126.124 101.681 126.121C101.667 126.119 101.656 126.117 101.649 126.117C101.646 126.116 101.644 126.116 101.642 126.116C101.641 126.115 101.641 126.115 101.64 126.115C101.64 126.115 101.64 126.115 101.64 126.115C101.64 126.115 101.64 126.115 101.238 129.088ZM98.9509 137.127C99.4709 135.124 100.155 133.648 100.788 132.76C101.529 131.72 101.697 132.115 101.09 132.085L101.387 126.092C98.8241 125.965 96.977 127.768 95.9011 129.278C94.7167 130.941 93.7828 133.156 93.1433 135.62L98.9509 137.127ZM97.5215 140.986C97.8992 141.005 98.2727 141.208 98.4849 141.463C98.6279 141.635 98.5604 141.663 98.4975 141.302C98.3698 140.569 98.4219 139.166 98.9509 137.127L93.1433 135.62C92.5127 138.05 92.2502 140.402 92.5866 142.332C92.7558 143.303 93.1151 144.389 93.8711 145.299C94.6965 146.292 95.8694 146.911 97.2248 146.979L97.5215 140.986ZM137.063 144.858C137.519 144.402 137.917 144.384 137.573 144.467C137.363 144.518 136.985 144.578 136.401 144.622C135.244 144.708 133.628 144.71 131.647 144.634C127.706 144.481 122.643 144.032 117.602 143.493C112.574 142.956 107.622 142.336 103.924 141.85C102.076 141.606 100.543 141.397 99.4734 141.248C98.9385 141.174 98.5194 141.115 98.2346 141.075C98.0923 141.055 97.9834 141.039 97.9105 141.029C97.8741 141.023 97.8466 141.019 97.8284 141.017C97.8192 141.015 97.8125 141.014 97.808 141.014C97.8058 141.014 97.8041 141.013 97.8031 141.013C97.8026 141.013 97.8022 141.013 97.802 141.013C97.8018 141.013 97.8018 141.013 97.3731 143.982C96.9445 146.951 96.9448 146.951 96.9452 146.951C96.9455 146.952 96.9461 146.952 96.9467 146.952C96.9481 146.952 96.95 146.952 96.9525 146.953C96.9576 146.953 96.965 146.954 96.9747 146.956C96.9941 146.959 97.0228 146.963 97.0606 146.968C97.136 146.979 97.2474 146.995 97.3924 147.015C97.6825 147.056 98.1073 147.116 98.6483 147.191C99.7301 147.342 101.277 147.553 103.141 147.798C106.868 148.289 111.871 148.915 116.964 149.46C122.045 150.002 127.268 150.469 131.415 150.629C133.478 150.709 135.357 150.717 136.85 150.605C137.591 150.549 138.327 150.458 138.981 150.3C139.503 150.174 140.518 149.889 141.306 149.101L137.063 144.858ZM140.603 141.318L137.063 144.858L141.306 149.101L144.846 145.561L140.603 141.318ZM140.014 140.515C140.018 141.507 139.937 142.237 139.821 142.686L145.628 144.193C145.929 143.035 146.019 141.726 146.014 140.489L140.014 140.515ZM145.951 141.114C146.053 140.623 146.117 140.075 146.089 139.503L140.096 139.8C140.095 139.768 140.097 139.76 140.095 139.779C140.093 139.797 140.089 139.834 140.077 139.891L145.951 141.114ZM146.089 139.503L144.153 100.399L138.16 100.696L140.096 139.8L146.089 139.503ZM144.153 100.399C144.085 99.0435 143.466 97.8705 142.473 97.0452C141.563 96.2891 140.477 95.9299 139.506 95.7607C137.576 95.4243 135.224 95.6867 132.794 96.3173L134.301 102.125C136.34 101.596 137.743 101.544 138.476 101.672C138.837 101.734 138.809 101.802 138.637 101.659C138.382 101.447 138.179 101.073 138.16 100.696L144.153 100.399ZM132.794 96.3173C130.33 96.9569 128.115 97.8907 126.452 99.0752C124.942 100.151 123.139 101.998 123.266 104.561L129.259 104.264C129.289 104.871 128.894 104.703 129.934 103.962C130.822 103.329 132.298 102.645 134.301 102.125L132.794 96.3173ZM123.266 104.561L124.624 131.979L130.616 131.682L129.259 104.264L123.266 104.561Z" fill="#0F283A" mask="url(#path-14-inside-2)"/>
<mask id="path-16-inside-3" fill="white">
<path fill-rule="evenodd" clip-rule="evenodd" d="M135.779 138.767L135.151 122.79C135.119 121.971 135.643 121.404 136.461 121.372C137.279 121.34 137.846 121.864 137.879 122.683L138.522 139.049C138.529 139.233 138.508 139.405 138.462 139.56C138.471 139.692 138.472 139.839 138.463 139.999C138.426 140.645 138.258 141.068 138.042 141.055L133.728 140.811C133.512 140.799 133.393 140.36 133.429 139.714C133.466 139.068 133.634 138.646 133.85 138.658L135.779 138.767Z"/>
</mask>
<path fill-rule="evenodd" clip-rule="evenodd" d="M135.779 138.767L135.151 122.79C135.119 121.971 135.643 121.404 136.461 121.372C137.279 121.34 137.846 121.864 137.879 122.683L138.522 139.049C138.529 139.233 138.508 139.405 138.462 139.56C138.471 139.692 138.472 139.839 138.463 139.999C138.426 140.645 138.258 141.068 138.042 141.055L133.728 140.811C133.512 140.799 133.393 140.36 133.429 139.714C133.466 139.068 133.634 138.646 133.85 138.658L135.779 138.767Z" fill="#FDF2DD"/>
<path d="M135.779 138.767L135.739 139.466L136.509 139.51L136.478 138.74L135.779 138.767ZM135.151 122.79L134.451 122.817L134.451 122.817L135.151 122.79ZM136.461 121.372L136.489 122.072L136.461 121.372ZM137.879 122.683L137.179 122.71L137.179 122.71L137.879 122.683ZM138.522 139.049L139.221 139.022L139.221 139.022L138.522 139.049ZM138.462 139.56L137.791 139.361L137.755 139.483L137.764 139.609L138.462 139.56ZM138.463 139.999L137.764 139.96L137.764 139.96L138.463 139.999ZM138.042 141.055L138.082 140.357L138.042 141.055ZM133.728 140.811L133.688 141.51L133.728 140.811ZM133.85 138.658L133.81 139.357L133.81 139.357L133.85 138.658ZM136.478 138.74L135.85 122.762L134.451 122.817L135.079 138.795L136.478 138.74ZM135.85 122.762C135.84 122.512 135.915 122.355 136.001 122.261C136.087 122.168 136.238 122.082 136.489 122.072L136.434 120.673C135.865 120.695 135.345 120.908 134.973 121.311C134.601 121.714 134.429 122.249 134.451 122.817L135.85 122.762ZM136.489 122.072C136.739 122.062 136.896 122.136 136.989 122.222C137.083 122.309 137.169 122.46 137.179 122.71L138.578 122.655C138.556 122.087 138.342 121.567 137.94 121.194C137.537 120.822 137.002 120.65 136.434 120.673L136.489 122.072ZM137.179 122.71L137.822 139.077L139.221 139.022L138.578 122.655L137.179 122.71ZM137.822 139.077C137.827 139.191 137.814 139.285 137.791 139.361L139.133 139.76C139.203 139.524 139.231 139.276 139.221 139.022L137.822 139.077ZM137.764 139.609C137.771 139.707 137.771 139.824 137.764 139.96L139.162 140.039C139.172 139.854 139.172 139.676 139.16 139.511L137.764 139.609ZM137.764 139.96C137.748 140.242 137.704 140.427 137.669 140.515C137.651 140.562 137.65 140.541 137.692 140.498C137.741 140.448 137.876 140.345 138.082 140.357L138.003 141.754C138.316 141.772 138.553 141.621 138.695 141.474C138.83 141.336 138.915 141.171 138.97 141.033C139.082 140.752 139.141 140.402 139.162 140.039L137.764 139.96ZM138.082 140.357L133.768 140.112L133.688 141.51L138.003 141.754L138.082 140.357ZM133.768 140.112C133.973 140.124 134.096 140.241 134.139 140.297C134.175 140.344 134.173 140.365 134.159 140.316C134.134 140.224 134.112 140.036 134.128 139.754L132.731 139.675C132.71 140.038 132.729 140.392 132.809 140.684C132.848 140.828 132.913 141.001 133.031 141.154C133.157 141.315 133.375 141.492 133.688 141.51L133.768 140.112ZM134.128 139.754C134.144 139.471 134.188 139.287 134.223 139.198C134.241 139.152 134.242 139.172 134.2 139.215C134.151 139.266 134.016 139.369 133.81 139.357L133.89 137.959C133.576 137.941 133.339 138.092 133.197 138.239C133.062 138.378 132.977 138.542 132.922 138.68C132.81 138.962 132.751 139.311 132.731 139.675L134.128 139.754ZM133.81 139.357L135.739 139.466L135.818 138.068L133.89 137.959L133.81 139.357Z" fill="#0F283A" mask="url(#path-16-inside-3)"/>
<mask id="path-18-inside-4" fill="white">
<path fill-rule="evenodd" clip-rule="evenodd" d="M34.3417 35.5524C35.0637 46.9704 37.0842 61.9335 37.0842 61.9335C37.181 63.8886 34.2668 65.9651 29.7987 67.1247C25.3306 68.2842 22.2874 67.7538 22.1906 65.7986C22.1906 65.7986 16.5383 26.6433 19.1932 23.9883L22.7331 20.4485C23.5364 20.24 24.5563 20.1542 25.6703 20.159C25.9763 20.0953 26.2632 20.0674 26.5213 20.0802L65.6246 22.0166C67.5798 22.1134 68.1102 25.1566 66.9506 29.6247C65.7911 34.0928 63.7146 37.007 61.7595 36.9101L34.3417 35.5524Z"/>
</mask>
<path fill-rule="evenodd" clip-rule="evenodd" d="M34.3417 35.5524C35.0637 46.9704 37.0842 61.9335 37.0842 61.9335C37.181 63.8886 34.2668 65.9651 29.7987 67.1247C25.3306 68.2842 22.2874 67.7538 22.1906 65.7986C22.1906 65.7986 16.5383 26.6433 19.1932 23.9883L22.7331 20.4485C23.5364 20.24 24.5563 20.1542 25.6703 20.159C25.9763 20.0953 26.2632 20.0674 26.5213 20.0802L65.6246 22.0166C67.5798 22.1134 68.1102 25.1566 66.9506 29.6247C65.7911 34.0928 63.7146 37.007 61.7595 36.9101L34.3417 35.5524Z" fill="#89C060"/>
<path d="M37.0842 61.9335L40.0572 61.532L40.0742 61.6581L40.0805 61.7851L37.0842 61.9335ZM34.3417 35.5524L31.3477 35.7417L31.1358 32.39L34.4901 32.5561L34.3417 35.5524ZM29.7987 67.1247L30.5523 70.0285L29.7987 67.1247ZM22.1906 65.7986L25.1598 65.37L25.1799 65.5095L25.1869 65.6502L22.1906 65.7986ZM19.1932 23.9883L17.0719 21.867L17.0719 21.867L19.1932 23.9883ZM22.7331 20.4485L20.6118 18.3271L21.1892 17.7498L21.9795 17.5446L22.7331 20.4485ZM25.6703 20.159L26.282 23.096L25.973 23.1603L25.6573 23.159L25.6703 20.159ZM26.5213 20.0802L26.6697 17.0838L26.6697 17.0838L26.5213 20.0802ZM65.6246 22.0166L65.4762 25.0129L65.4762 25.0129L65.6246 22.0166ZM66.9506 29.6247L64.0468 28.8711L66.9506 29.6247ZM61.7595 36.9101L61.6111 39.9065L61.6111 39.9065L61.7595 36.9101ZM37.0842 61.9335C34.1111 62.3349 34.1111 62.3348 34.1111 62.3346C34.1111 62.3345 34.111 62.3342 34.111 62.3339C34.1109 62.3334 34.1108 62.3326 34.1107 62.3316C34.1104 62.3295 34.11 62.3266 34.1095 62.3228C34.1085 62.3151 34.107 62.3039 34.105 62.2891C34.101 62.2596 34.0952 62.216 34.0876 62.1589C34.0724 62.0447 34.0501 61.8765 34.0215 61.6588C33.9643 61.2235 33.882 60.5901 33.7811 59.7948C33.5792 58.2046 33.3026 55.9657 33.0034 53.368C32.4061 48.1829 31.7136 41.5277 31.3477 35.7417L37.3357 35.3631C37.6919 40.9951 38.3706 47.5305 38.964 52.6814C39.2601 55.2517 39.5337 57.4672 39.7333 59.0393C39.8331 59.8253 39.9142 60.4501 39.9704 60.8776C39.9985 61.0914 40.0203 61.2558 40.035 61.3664C40.0424 61.4217 40.048 61.4635 40.0517 61.4913C40.0536 61.5052 40.055 61.5156 40.0559 61.5224C40.0563 61.5258 40.0567 61.5283 40.0569 61.5299C40.057 61.5307 40.0571 61.5313 40.0571 61.5317C40.0571 61.5318 40.0572 61.5319 40.0572 61.532C40.0572 61.5321 40.0572 61.532 37.0842 61.9335ZM29.0451 64.2208C31.0488 63.7009 32.5248 63.0167 33.4124 62.3842C34.4525 61.6431 34.0577 61.4744 34.0878 62.0819L40.0805 61.7851C40.2074 64.3477 38.404 66.1948 36.8942 67.2706C35.2319 68.4551 33.0167 69.3889 30.5523 70.0285L29.0451 64.2208ZM25.1869 65.6502C25.1682 65.2725 24.965 64.8991 24.7097 64.6868C24.5378 64.5439 24.51 64.6114 24.8705 64.6742C25.6034 64.8019 27.0069 64.7498 29.0451 64.2208L30.5523 70.0285C28.1225 70.659 25.7703 70.9215 23.8403 70.5851C22.8694 70.4159 21.7834 70.0567 20.874 69.3006C19.8812 68.4753 19.2614 67.3023 19.1942 65.947L25.1869 65.6502ZM21.3145 26.1097C21.7704 25.6538 21.7885 25.2559 21.7056 25.5994C21.6547 25.8101 21.5952 26.1876 21.5513 26.7719C21.4644 27.9285 21.4626 29.5441 21.5392 31.5252C21.6918 35.4664 22.1408 40.5296 22.6793 45.5704C23.2164 50.5981 23.8367 55.5496 24.3232 59.2478C24.5664 61.0958 24.7758 62.6286 24.9244 63.6984C24.9986 64.2333 25.0577 64.6523 25.098 64.9371C25.1182 65.0795 25.1337 65.1883 25.1442 65.2612C25.1494 65.2977 25.1533 65.3252 25.156 65.3434C25.1573 65.3525 25.1582 65.3593 25.1589 65.3637C25.1592 65.366 25.1594 65.3676 25.1596 65.3686C25.1597 65.3692 25.1597 65.3695 25.1598 65.3698C25.1598 65.37 25.1598 65.37 22.1906 65.7986C19.2213 66.2272 19.2213 66.227 19.2212 66.2266C19.2212 66.2262 19.2211 66.2257 19.221 66.225C19.2208 66.2237 19.2206 66.2217 19.2202 66.2192C19.2195 66.2142 19.2184 66.2068 19.217 66.1971C19.2142 66.1776 19.2101 66.1489 19.2047 66.1112C19.1939 66.0358 19.178 65.9244 19.1574 65.7793C19.1163 65.4893 19.0565 65.0645 18.9814 64.5235C18.8312 63.4417 18.6198 61.8947 18.3745 60.0304C17.8842 56.3041 17.2573 51.3007 16.7133 46.2078C16.1706 41.1278 15.7043 35.9044 15.5437 31.7573C15.4639 29.6942 15.456 27.8152 15.5682 26.3224C15.6238 25.5819 15.7151 24.846 15.8731 24.1914C15.9991 23.6697 16.2842 22.6547 17.0719 21.867L21.3145 26.1097ZM24.8544 22.5698L21.3145 26.1097L17.0719 21.867L20.6118 18.3271L24.8544 22.5698ZM25.6573 23.159C24.6657 23.1547 23.9354 23.2358 23.4867 23.3523L21.9795 17.5446C23.1375 17.2441 24.4469 17.1537 25.6832 17.159L25.6573 23.159ZM25.0585 17.222C25.5492 17.1198 26.0978 17.0555 26.6697 17.0838L26.373 23.0765C26.4047 23.0781 26.4127 23.076 26.3938 23.0778C26.3754 23.0795 26.3384 23.0842 26.282 23.096L25.0585 17.222ZM26.6697 17.0838L65.773 19.0202L65.4762 25.0129L26.373 23.0765L26.6697 17.0838ZM65.773 19.0202C67.1283 19.0873 68.3012 19.7072 69.1266 20.7C69.8826 21.6094 70.2419 22.6954 70.4111 23.6663C70.7474 25.5963 70.485 27.9485 69.8544 30.3783L64.0468 28.8711C64.5758 26.8329 64.6279 25.4294 64.5002 24.6965C64.4373 24.336 64.3698 24.3638 64.5128 24.5357C64.725 24.791 65.0985 24.9942 65.4762 25.0129L65.773 19.0202ZM69.8544 30.3783C69.2149 32.8427 68.2811 35.0579 67.0966 36.7202C66.0208 38.23 64.1737 40.0334 61.6111 39.9065L61.9078 33.9138C61.3004 33.8837 61.4691 34.2785 62.2102 33.2384C62.8426 32.3508 63.5268 30.8748 64.0468 28.8711L69.8544 30.3783ZM61.6111 39.9065L34.1933 38.5487L34.4901 32.5561L61.9078 33.9138L61.6111 39.9065Z" fill="#0F283A" mask="url(#path-18-inside-4)"/>
<mask id="path-20-inside-5" fill="white">
<path fill-rule="evenodd" clip-rule="evenodd" d="M25.6064 27.4392L27.5353 27.5485C27.751 27.5607 27.9192 27.1383 27.9558 26.4924C27.9924 25.8466 27.8729 25.4078 27.6572 25.3956L23.3431 25.1512C23.1274 25.1389 22.9592 25.5614 22.9226 26.2073C22.9135 26.3674 22.9141 26.5149 22.9233 26.6462C22.8771 26.8017 22.8562 26.9732 22.8634 27.1574L23.5067 43.5236C23.5389 44.342 24.1059 44.866 24.9242 44.8339C25.7425 44.8017 26.2666 44.2347 26.2344 43.4164L25.6064 27.4392Z"/>
</mask>
<path fill-rule="evenodd" clip-rule="evenodd" d="M25.6064 27.4392L27.5353 27.5485C27.751 27.5607 27.9192 27.1383 27.9558 26.4924C27.9924 25.8466 27.8729 25.4078 27.6572 25.3956L23.3431 25.1512C23.1274 25.1389 22.9592 25.5614 22.9226 26.2073C22.9135 26.3674 22.9141 26.5149 22.9233 26.6462C22.8771 26.8017 22.8562 26.9732 22.8634 27.1574L23.5067 43.5236C23.5389 44.342 24.1059 44.866 24.9242 44.8339C25.7425 44.8017 26.2666 44.2347 26.2344 43.4164L25.6064 27.4392Z" fill="#FDF2DD"/>
<path d="M27.5353 27.5485L27.4957 28.2474L27.4957 28.2474L27.5353 27.5485ZM25.6064 27.4392L25.646 26.7403L24.8767 26.6968L24.9069 27.4667L25.6064 27.4392ZM27.9558 26.4924L27.2569 26.4528L27.9558 26.4924ZM27.6572 25.3956L27.6968 24.6967L27.6968 24.6967L27.6572 25.3956ZM23.3431 25.1512L23.3827 24.4523L23.3827 24.4523L23.3431 25.1512ZM22.9226 26.2073L22.2237 26.1677L22.2237 26.1677L22.9226 26.2073ZM22.9233 26.6462L23.5943 26.8454L23.6304 26.7238L23.6215 26.5973L22.9233 26.6462ZM22.8634 27.1574L22.1639 27.1849V27.1849L22.8634 27.1574ZM23.5067 43.5236L22.8073 43.5511L23.5067 43.5236ZM26.2344 43.4164L26.9339 43.3889L26.9339 43.3889L26.2344 43.4164ZM27.5749 26.8496L25.646 26.7403L25.5668 28.1381L27.4957 28.2474L27.5749 26.8496ZM27.2569 26.4528C27.2409 26.7353 27.1976 26.9198 27.1623 27.0083C27.1438 27.0548 27.1435 27.0341 27.1851 26.9914C27.2343 26.9408 27.3691 26.838 27.5749 26.8496L27.4957 28.2474C27.8092 28.2652 28.046 28.1141 28.1886 27.9676C28.3235 27.8289 28.4079 27.6645 28.463 27.5262C28.575 27.245 28.634 26.8954 28.6546 26.532L27.2569 26.4528ZM27.6176 26.0945C27.4119 26.0828 27.2895 25.9654 27.2464 25.9096C27.2099 25.8625 27.2125 25.8419 27.2257 25.8902C27.2507 25.9821 27.2729 26.1704 27.2569 26.4528L28.6546 26.532C28.6752 26.1686 28.656 25.8146 28.5765 25.5226C28.5374 25.3789 28.4721 25.206 28.3537 25.053C28.2286 24.8913 28.0104 24.7145 27.6968 24.6967L27.6176 26.0945ZM23.3035 25.8501L27.6176 26.0945L27.6968 24.6967L23.3827 24.4523L23.3035 25.8501ZM23.6215 26.2469C23.6375 25.9644 23.6808 25.7798 23.716 25.6914C23.7346 25.6449 23.7349 25.6656 23.6933 25.7083C23.6441 25.7589 23.5092 25.8617 23.3035 25.85L23.3827 24.4523C23.0691 24.4345 22.8323 24.5856 22.6898 24.7321C22.5549 24.8708 22.4704 25.0352 22.4154 25.1735C22.3034 25.4547 22.2443 25.8042 22.2237 26.1677L23.6215 26.2469ZM23.6215 26.5973C23.6147 26.4996 23.6138 26.3821 23.6215 26.2469L22.2237 26.1677C22.2132 26.3528 22.2134 26.5301 22.225 26.6951L23.6215 26.5973ZM23.5629 27.1299C23.5584 27.0158 23.5718 26.9214 23.5943 26.8454L22.2522 26.447C22.1824 26.6821 22.1539 26.9307 22.1639 27.1849L23.5629 27.1299ZM24.2062 43.4961L23.5629 27.1299L22.1639 27.1849L22.8073 43.5511L24.2062 43.4961ZM24.8967 44.1344C24.6465 44.1443 24.4892 44.07 24.3958 43.9837C24.3024 43.8973 24.216 43.7464 24.2062 43.4961L22.8073 43.5511C22.8296 44.1192 23.0428 44.6395 23.4455 45.0117C23.8482 45.384 24.3836 45.5557 24.9517 45.5333L24.8967 44.1344ZM25.535 43.4439C25.5448 43.6941 25.4705 43.8514 25.3842 43.9448C25.2979 44.0382 25.1469 44.1246 24.8967 44.1344L24.9517 45.5333C25.5198 45.511 26.04 45.2978 26.4123 44.8951C26.7846 44.4924 26.9562 43.957 26.9339 43.3889L25.535 43.4439ZM24.9069 27.4667L25.535 43.4439L26.9339 43.3889L26.3058 27.4117L24.9069 27.4667Z" fill="#0F283A" mask="url(#path-20-inside-5)"/>
<path d="M133.104 69.164H127.84V66.42H141.532V69.164H136.212V87H133.104V69.164ZM142.302 74.148H145.326V76.668C145.625 75.8093 146.11 75.1187 146.782 74.596C147.454 74.0733 148.22 73.812 149.078 73.812C149.676 73.812 150.086 73.868 150.31 73.98L149.89 77.032C149.722 76.92 149.358 76.864 148.798 76.864C147.921 76.864 147.118 77.144 146.39 77.704C145.681 78.264 145.326 79.16 145.326 80.392V87H142.302V74.148ZM156.145 87.392L150.825 74.148H154.241L156.985 82.324L157.601 84.312L158.217 82.324L161.101 74.148H164.405L156.509 94.056H153.373L156.145 87.392ZM170.483 69.164H165.219V66.42H178.911V69.164H173.591V87H170.483V69.164ZM185.568 87.28C184.037 87.28 182.759 86.9813 181.732 86.384C180.705 85.768 179.949 84.956 179.464 83.948C178.979 82.9213 178.736 81.8013 178.736 80.588C178.736 79.2253 179.016 78.0307 179.576 77.004C180.155 75.9773 180.948 75.1933 181.956 74.652C182.964 74.092 184.103 73.812 185.372 73.812C187.351 73.812 188.816 74.3627 189.768 75.464C190.739 76.5467 191.224 78.0773 191.224 80.056C191.224 80.56 191.196 81.0827 191.14 81.624H181.9C182.105 82.7627 182.507 83.584 183.104 84.088C183.72 84.592 184.569 84.844 185.652 84.844C186.548 84.844 187.285 84.7693 187.864 84.62C188.443 84.4707 188.975 84.2653 189.46 84.004L190.384 86.16C189.917 86.4587 189.283 86.72 188.48 86.944C187.677 87.168 186.707 87.28 185.568 87.28ZM188.284 79.524C188.303 78.3667 188.051 77.5547 187.528 77.088C187.005 76.6027 186.259 76.36 185.288 76.36C183.328 76.36 182.199 77.4147 181.9 79.524H188.284ZM200.386 87.28C199.117 87.28 197.969 87.0093 196.942 86.468C195.934 85.908 195.132 85.1147 194.534 84.088C193.937 83.0427 193.638 81.82 193.638 80.42C193.638 79.0947 193.909 77.9373 194.45 76.948C195.01 75.94 195.785 75.1653 196.774 74.624C197.782 74.0827 198.94 73.812 200.246 73.812C201.236 73.812 202.085 73.9427 202.794 74.204C203.522 74.4467 204.092 74.7547 204.502 75.128L203.158 77.564C202.374 76.78 201.488 76.388 200.498 76.388C199.304 76.388 198.389 76.752 197.754 77.48C197.138 78.208 196.83 79.1787 196.83 80.392C196.83 81.7733 197.148 82.8467 197.782 83.612C198.436 84.3773 199.341 84.76 200.498 84.76C201.077 84.76 201.637 84.676 202.178 84.508C202.738 84.34 203.168 84.144 203.466 83.92L204.558 86.048C204.148 86.3653 203.569 86.6547 202.822 86.916C202.094 87.1587 201.282 87.28 200.386 87.28ZM207.577 66.42H210.517V74.148L210.405 76.528C210.76 75.744 211.329 75.1 212.113 74.596C212.897 74.0733 213.812 73.812 214.857 73.812C216.183 73.812 217.2 74.092 217.909 74.652C218.619 75.1933 219.095 75.9587 219.337 76.948C219.58 77.9373 219.701 79.2253 219.701 80.812V87H216.705V80.784C216.705 79.7013 216.64 78.852 216.509 78.236C216.397 77.62 216.155 77.1533 215.781 76.836C215.427 76.5187 214.904 76.36 214.213 76.36C213.653 76.36 213.084 76.528 212.505 76.864C211.945 77.2 211.479 77.6947 211.105 78.348C210.732 78.9827 210.545 79.7387 210.545 80.616V87H207.577V66.42ZM223.739 66.42H226.903V84.2H232.811V87H223.739V66.42ZM241.313 87.28C240.155 87.28 239.082 87.0093 238.093 86.468C237.122 85.908 236.338 85.124 235.741 84.116C235.162 83.0893 234.873 81.8947 234.873 80.532C234.873 79.188 235.125 78.012 235.629 77.004C236.151 75.996 236.889 75.212 237.841 74.652C238.793 74.092 239.913 73.812 241.201 73.812C241.947 73.812 242.647 73.9427 243.301 74.204C243.954 74.4653 244.505 74.792 244.953 75.184C245.401 75.5573 245.699 75.9307 245.849 76.304L245.905 74.148H248.789V87H245.933L245.877 84.732C245.559 85.404 244.981 86.0013 244.141 86.524C243.301 87.028 242.358 87.28 241.313 87.28ZM241.817 84.76C242.881 84.76 243.777 84.396 244.505 83.668C245.233 82.9213 245.597 81.9507 245.597 80.756V80.56C245.597 79.7573 245.429 79.0387 245.093 78.404C244.757 77.7693 244.299 77.2747 243.721 76.92C243.142 76.5653 242.507 76.388 241.817 76.388C240.622 76.388 239.698 76.78 239.045 77.564C238.391 78.3293 238.065 79.328 238.065 80.56C238.065 81.8107 238.382 82.828 239.017 83.612C239.67 84.3773 240.603 84.76 241.817 84.76ZM260.471 87.28C259.426 87.28 258.483 87.028 257.643 86.524C256.822 86.0013 256.253 85.404 255.935 84.732L255.879 87H252.967V66.42H255.935V74.344L255.795 76.528C256.113 75.7813 256.729 75.1467 257.643 74.624C258.577 74.0827 259.585 73.812 260.667 73.812C261.937 73.812 263.038 74.1013 263.971 74.68C264.923 75.24 265.651 76.0333 266.155 77.06C266.659 78.068 266.911 79.244 266.911 80.588C266.911 81.9507 266.613 83.136 266.015 84.144C265.437 85.152 264.653 85.9267 263.663 86.468C262.693 87.0093 261.629 87.28 260.471 87.28ZM259.967 84.76C261.181 84.76 262.114 84.3773 262.767 83.612C263.421 82.828 263.747 81.82 263.747 80.588C263.747 79.3373 263.421 78.3293 262.767 77.564C262.133 76.78 261.199 76.388 259.967 76.388C258.903 76.388 258.007 76.7613 257.279 77.508C256.551 78.236 256.187 79.1973 256.187 80.392V80.588C256.187 81.3907 256.355 82.1093 256.691 82.744C257.046 83.3787 257.503 83.8733 258.063 84.228C258.642 84.5827 259.277 84.76 259.967 84.76Z" fill="white"/>
<defs>
<clipPath id="clip0">
<rect width="95" height="95" fill="white" transform="translate(32 35)"/>
</clipPath>
</defs>
</svg>
