<?xml version="1.0" encoding="utf-8"?>
<!-- Generator: Adobe Illustrator 23.0.0, SVG Export Plug-In . SVG Version: 6.00 Build 0)  -->
<svg version="1.1" xmlns="http://www.w3.org/2000/svg" xmlns:xlink="http://www.w3.org/1999/xlink" x="0px" y="0px"
	 viewBox="0 0 1920 1080" style="enable-background:new 0 0 1920 1080;" xml:space="preserve">
<style type="text/css">
	.st0{opacity:0.1;fill:#2A94F4;}
	.st1{fill:#CCE9FF;}
	.st2{fill:#0E538C;}
	.st3{fill:#FFBE55;}
	.st4{opacity:0.16;fill:#FFFFFF;}
	.st5{fill:#EFB68F;}
	.st6{fill:#0B4870;}
	.st7{fill:#2A94F4;}
</style>
<g id="Background">
	<path class="st0" d="M1852.3,1044.4c0,0,146.9-271.4-132.4-315.9c-85.6-13.6-135-45.8-135-94.6s46.7-116.2,179.1-103.2
		c132.4,12.9,184.3-342.2-168.7-342.2S1108.6,115.4,1034,84.3S288.2-188.7,196.5,407.4c-13,84.3,7.8,184.2,90.8,235.5
		S365.2,762,302.9,802c-62.3,40.1-233.6,32.5-244,254.3L1852.3,1044.4z"/>
	<polygon class="st1" points="560.4,1041.9 1240.6,695.5 1856.7,1067.4 	"/>
	<polygon class="st1" points="53.4,1050.3 482.9,728.5 953.8,1050.3 	"/>
	<path class="st2" d="M1911.4,1077.8l-1905-6.2c0.3-95.5,427-191.7,953-190C1485.5,883.3,1911.8,982.2,1911.4,1077.8z"/>
</g>
<g id="Character">
	<g>
		<path class="st3" d="M923.6,464.8H774c-14,0-25.3-11.3-25.3-25.3V240.7c0-14,11.3-25.3,25.3-25.3h149.6c14,0,25.3,11.3,25.3,25.3
			v198.9C948.9,453.5,937.6,464.8,923.6,464.8z"/>
		<path class="st4" d="M950.4,464.8h-157c-3.6,0-6.5-2.9-6.5-6.5V221.9c0-3.6,2.9-6.5,6.5-6.5h157c3.6,0,6.5,2.9,6.5,6.5v236.4
			C956.9,461.9,954,464.8,950.4,464.8z"/>
		<g>
			<g>
				<path class="st2" d="M832.5,157.8c0,0,4.7-36.8,20-50.2c20-17.5,62.8-12.8,79.5,3.9c18.5,18.5,27.4,56.2,12.3,83.4
					c30,17.6,28.4,56.4,3.2,60.1c0,0-189-6.3-151.9-72C813.2,151.9,832.5,157.8,832.5,157.8z"/>
				<path class="st5" d="M940.8,289.9c0,0,59.8,63.7,78.9,77.2c13.9,12.1,99.2-48.8,105.1-52c17.2,1.7,27.8-6,31.9-11.6
					c4.1-5.6-7.1-21.7-10.6-20c-13.1-15.7-20.8,6.9-27.4,12.6c-22.7,10.5-78,33.1-84.4,38c-29.9-24.4-72.5-76.4-72.5-76.4
					L940.8,289.9z"/>
				<path class="st5" d="M940.7,896.9c0,0,3.1,16.1,2.8,28.9c-1.8,8.9,0,11.5,0,11.5l36.5-2.9c0,0-16.2-7.3-15-42.1
					C966.3,857.5,940.7,896.9,940.7,896.9z"/>
				<path class="st6" d="M943.1,928.4c0,0,15.9,5.4,31.6,1.3c18.5,7.9,31.5,11,48.3,12.9c16.8,2,13.8,14.7-14.9,12.9
					c-28.7-1.8-48.7-0.5-55.1,0c-6.4,0.6-16.6,1.4-17-2.7C935.6,948.8,937.9,927.1,943.1,928.4z"/>
				<path class="st6" d="M954.2,449.2c0,0,23.5,211.5,24.9,239c1.4,27.5,1.4,37.1,0,53.9c-1.4,16.8-13.9,158-13.9,158l-24,1.4
					c0,0-17.9-154-24.9-180.3c-7-26.3-34.2-159.8-34.2-159.8l31.4-136.5L954.2,449.2z"/>
				<path class="st5" d="M840.2,899.8c0,0,1.3,11.8-0.1,24.5c-2.5,8.7-0.9,11.5-0.9,11.5l36.7,0.1c0,0-15.5-8.6-11.5-43.2
					C868.3,858.2,840.2,899.8,840.2,899.8z"/>
				<path class="st6" d="M841.1,928.4c0,0,15.9,5.4,31.6,1.3c18.5,7.9,31.5,11,48.3,12.9c16.8,2,13.8,14.7-14.9,12.9
					c-28.7-1.8-48.7-0.5-55.1,0c-6.4,0.6-16.6,1.4-17-2.7C833.6,948.8,835.9,927.1,841.1,928.4z"/>
				<path class="st6" d="M906.9,449.2c0,0-19.9,212.3-18.5,239.8c1.4,27.5-24.1,211.5-24.1,211.5l-24.1,0.5c0,0-6.2-161.6-6.2-188.8
					c0-25.9-8.5-236.6-8.5-236.6l35.5-50.8L906.9,449.2z"/>
				<path class="st7" d="M932,325.7c-3.3,7.6,21.7,113.8,25.9,138.3c0,0-0.5-0.1-1.5-0.3c-10.9-1.6-77.3-10.4-130.9,12l-4.9-150
					l-0.2-5.6c0,0,0-5.7,0.5-14.3v-0.1c1.2-17.8,4.9-48,16.4-67.3c5.9-10,13.8-17.2,24.6-18.2c33.4-3.3,60,11.1,72.5,15
					c21.1,6.6,59,52.7,59,52.7s-29.4,23.2-37.6,30.5l-14.5-17.2C941.3,301.2,935.3,317.9,932,325.7z"/>
				<path class="st5" d="M923.2,125.2c0,0,21.2,49.1,5.1,71.5c-12,16.8-33,17.3-33,17.3v24.2c0,0-2.4,2.1-6.6,2.4
					c-7.3,0.4-26.8-11.4-26.8-11.4V134L923.2,125.2z"/>
				<path class="st5" d="M790.5,279.4c0,0-46.4,73.6-55.9,94.4c-9.1,15.3,67.5,94.7,71.7,100.3c1.6,17.6,7.3,22.6,10.4,25.4
					c3.1,2.8,7.5,8.7,9.8,8.6l-1.1-30.9c-0.7-0.7,1.6-4.5,5.4-2.4c13.2,7.4,13.2-12.1-6.9-10.1c-1.2,0.1-1.9-1.6-2.8-2.4
					c-14.3-22-46.5-75.8-52.5-81.7c18-32.9,60.3-81.5,60.3-81.5L790.5,279.4z"/>
				<path class="st7" d="M775.4,285.8c0,0,43-56,69.7-54c26.7,2,25.1,37.9,0,63c-25.1,25.1-33.5,34.7-33.5,34.7
					S781,315.3,775.4,285.8z"/>
				<path class="st2" d="M925.1,119.6c0,0-10,43.9-33,55.5c-23,11.6-5.6,40-27.6,61.3c-6.5,6.3-16.2,5.2-23.6,3
					c-10.6-3.2-20.1-0.5-27.6,7.2c-0.7,0.7-3.5,2.1-4,2.9c-28.5-18.8,43.1-124.4,43.1-124.4L925.1,119.6z"/>
			</g>
		</g>
		<path class="st3" d="M1145.7,956.2h-17.4v-712V129.3h0c6.7,0,12.1,5.4,12.3,12l1.3,68.4c0,2.1,1.7,3.7,3.8,3.7l0,0l62.8-37.9v0
			c0,9.7-4.9,18.8-13.1,24.1l-39.5,25.5c-6.4,4.1-10.2,11.2-10.2,18.7V956.2z"/>
		<path class="st3" d="M828.7,238.5l-11.1,218.4l5,7.2c0,0,31.1-111.8,18.5-224.5C841,239.5,830.7,234.3,828.7,238.5z"/>
		<path class="st3" d="M915.8,228.2L947.1,412c0,0-6.4-159.1-15.7-177.8L915.8,228.2z"/>
		<path class="st3" d="M840.8,124l100.9,0.3c0.5-0.4,7.8,10.3,5.8,12.8c-0.6,0.7,0.3,0.8,0.3,0.8s-54.6,4.2-110.2-2.8L840.8,124z"/>
		<path class="st3" d="M859.5,127.5c0,0-57.9-1-95.8,59.1l15.3,1.3C778.9,187.9,811.6,134.3,859.5,127.5z"/>
		<path class="st3" d="M853.3,134.9c0,0-35.1-35.3-95.9,1.5L762,165C762,165,807.4,119.5,853.3,134.9z"/>
	</g>
</g>
</svg>
