<svg width="58" height="135" viewBox="0 0 58 135" fill="none" xmlns="http://www.w3.org/2000/svg">
<path d="M19.4849 81.8999C19.4849 76.659 20.1213 72.485 21.394 69.3779C22.6668 66.2708 24.9878 63.2199 28.3569 60.2251C31.7635 57.1929 34.0283 54.7409 35.1514 52.8691C36.2744 50.96 36.8359 48.9572 36.8359 46.8608C36.8359 40.5343 33.916 37.3711 28.0762 37.3711C25.306 37.3711 23.0786 38.2321 21.394 39.9541C19.7469 41.6387 18.8859 43.9784 18.811 46.9731H2.52686C2.60173 39.8231 4.90397 34.2266 9.43359 30.1836C14.0007 26.1406 20.2148 24.1191 28.0762 24.1191C36.0124 24.1191 42.1704 26.047 46.5503 29.9028C50.9302 33.7212 53.1201 39.1305 53.1201 46.1309C53.1201 49.3128 52.4089 52.3263 50.9863 55.1714C49.5638 57.979 47.0744 61.1048 43.5181 64.5488L38.9697 68.8726C36.1247 71.6053 34.4963 74.806 34.0845 78.4746L33.8599 81.8999H19.4849ZM17.8564 99.1387C17.8564 96.6305 18.6987 94.5716 20.3833 92.9619C22.1053 91.3148 24.2952 90.4912 26.9531 90.4912C29.611 90.4912 31.7822 91.3148 33.4668 92.9619C35.1888 94.5716 36.0498 96.6305 36.0498 99.1387C36.0498 101.609 35.2075 103.65 33.5229 105.259C31.8758 106.869 29.6859 107.674 26.9531 107.674C24.2204 107.674 22.0117 106.869 20.3271 105.259C18.68 103.65 17.8564 101.609 17.8564 99.1387Z" fill="white"/>
<rect x="17" y="89" width="20" height="20" rx="10" fill="#77CC6D"/>
</svg>
