<svg width="62" height="66" viewBox="0 0 62 66" fill="none" xmlns="http://www.w3.org/2000/svg">
<path d="M30.5536 65.4255C47.4249 65.4255 61.1019 50.978 61.1019 33.156C61.1019 15.3341 47.4249 0.886536 30.5536 0.886536C13.6822 0.886536 0.00524902 15.3341 0.00524902 33.156C0.00524902 50.978 13.6822 65.4255 30.5536 65.4255Z" fill="#55ACEE"/>
<path d="M49.2655 24.0777C47.9564 24.6909 46.5482 25.1056 45.0714 25.2908C46.5793 24.3365 47.7364 22.8265 48.2826 21.0243C46.8717 21.9085 45.3083 22.5498 43.6458 22.8956C42.3138 21.3971 40.416 20.4606 38.3146 20.4606C34.2827 20.4606 31.0127 23.9149 31.0127 28.1739C31.0127 28.7785 31.0775 29.3669 31.2027 29.9318C25.1342 29.6103 19.7535 26.5397 16.1519 21.8716C15.5234 23.0106 15.1629 24.3365 15.1629 25.7499C15.1629 28.4253 16.453 30.7872 18.4112 32.1701C17.2148 32.1304 16.0881 31.7835 15.1041 31.2042C15.1036 31.237 15.1036 31.2698 15.1036 31.302C15.1036 35.0393 17.6216 38.1565 20.9613 38.8646C20.3493 39.0418 19.7029 39.1356 19.038 39.1356C18.5664 39.1356 18.1095 39.0878 17.6641 38.9981C18.5931 42.0618 21.2892 44.292 24.4851 44.3547C21.9856 46.4238 18.8376 47.6565 15.4156 47.6565C14.8275 47.6565 14.2448 47.6203 13.6747 47.5484C16.9044 49.7377 20.7435 51.0142 24.8669 51.0142C38.2977 51.0142 45.6426 39.261 45.6426 29.0672C45.6426 28.733 45.6356 28.4 45.6214 28.0698C47.0492 26.9826 48.287 25.6245 49.2655 24.0777Z" fill="#F1F2F2"/>
</svg>
